<svg width="105" height="80" viewBox="0 0 105 80" fill="none" xmlns="http://www.w3.org/2000/svg">
<path d="M23.6112 0.772478H22.6201V1.94791H23.6112V0.772478Z" fill="white"/>
<path d="M81.4134 1.06514H80.4224V2.24057H81.4134V1.06514Z" fill="white"/>
<path d="M25.0419 2.60367H18.4404V3.30824H25.0419V2.60367Z" fill="white"/>
<path d="M85.5927 2.89633H78.9912V3.6009H85.5927V2.89633Z" fill="white"/>
<path d="M35.8674 0H32.8711V0.704577H35.8674V0Z" fill="white"/>
<path d="M71.1628 0.29266H68.1665V0.997237H71.1628V0.29266Z" fill="white"/>
<path d="M24.475 3.96513H19.0854V8.15412H24.475V3.96513Z" fill="white"/>
<path d="M84.9477 4.2578H79.5581V8.44679H84.9477V4.2578Z" fill="white"/>
<path d="M35.3084 1.36055H33.4072V8.14499H35.3084V1.36055Z" fill="white"/>
<path d="M70.6263 1.65321H68.7251V8.43765H70.6263V1.65321Z" fill="white"/>
<path d="M51.1592 1.56422H49.9512V2.75249H51.1592V1.56422Z" fill="white"/>
<path d="M54.082 1.56422H52.874V2.75249H54.082V1.56422Z" fill="white"/>
<path d="M52.0163 3.40367H48.9243V4.19157H52.0163V3.40367Z" fill="white"/>
<path d="M55.1085 3.40367H52.0166V4.19157H55.1085V3.40367Z" fill="white"/>
<path fill-rule="evenodd" clip-rule="evenodd" d="M49.5542 4.8477H51.4515V6.8633L49.5542 7.65961V4.8477Z" fill="white"/>
<path fill-rule="evenodd" clip-rule="evenodd" d="M54.4793 4.8477H52.582V6.8633L54.4793 7.65961V4.8477Z" fill="white"/>
<path fill-rule="evenodd" clip-rule="evenodd" d="M0 11.8212H6.16417L7.73653 8.80917H45.7116L43.6482 9.77951H8.44356L7.35983 11.8286L34.1909 11.8212V12.8276H0V11.8212Z" fill="white"/>
<path fill-rule="evenodd" clip-rule="evenodd" d="M34.833 11.4816H38.6862L34.833 12.8957V11.4816Z" fill="white"/>
<path fill-rule="evenodd" clip-rule="evenodd" d="M69.2009 11.7752H65.3481L69.2009 13.1888V11.7752Z" fill="white"/>
<path d="M3.88409 13.5119H0.725098V15.6138H3.88409V13.5119Z" fill="white"/>
<path fill-rule="evenodd" clip-rule="evenodd" d="M0.198242 16.2431H28.3517L29.0247 17.5329H0.198242V16.2431Z" fill="white"/>
<path fill-rule="evenodd" clip-rule="evenodd" d="M103.835 16.2431H75.6813L75.0088 17.5329H103.835V16.2431Z" fill="white"/>
<path d="M11.9333 13.5202H11.2593V15.5866H11.9333V13.5202Z" fill="white"/>
<path d="M24.0148 13.5202H23.3408V15.5866H24.0148V13.5202Z" fill="white"/>
<path d="M13.2814 13.5202H12.6074V15.5866H13.2814V13.5202Z" fill="white"/>
<path d="M5.22577 13.5202H4.55176V15.5866H5.22577V13.5202Z" fill="white"/>
<path d="M25.3639 13.5202H24.6899V15.5866H25.3639V13.5202Z" fill="white"/>
<path d="M14.6291 13.5202H13.9551V15.5866H14.6291V13.5202Z" fill="white"/>
<path d="M6.5739 13.5202H5.8999V15.5866H6.5739V13.5202Z" fill="white"/>
<path d="M26.7111 13.5202H26.0371V15.5866H26.7111V13.5202Z" fill="white"/>
<path d="M15.9777 13.5202H15.3037V15.5866H15.9777V13.5202Z" fill="white"/>
<path d="M7.92157 13.5202H7.24756V15.5866H7.92157V13.5202Z" fill="white"/>
<path d="M28.0593 13.5202H27.3853V15.5866H28.0593V13.5202Z" fill="white"/>
<path d="M17.3263 13.5202H16.6523V15.5866H17.3263V13.5202Z" fill="white"/>
<path d="M9.27019 13.5202H8.59619V15.5866H9.27019V13.5202Z" fill="white"/>
<path d="M18.674 13.5202H18V15.5866H18.674V13.5202Z" fill="white"/>
<path d="M10.6183 13.5202H9.94434V15.5866H10.6183V13.5202Z" fill="white"/>
<path d="M20.0226 13.5202H19.3486V15.5866H20.0226V13.5202Z" fill="white"/>
<path d="M21.3708 13.5202H20.6968V15.5866H21.3708V13.5202Z" fill="white"/>
<path d="M22.7184 13.5202H22.0444V15.5866H22.7184V13.5202Z" fill="white"/>
<path fill-rule="evenodd" clip-rule="evenodd" d="M52.0172 8.89036L31.2813 16.51H29.7099L29.6789 16.4568L29.6631 16.3153L52.0172 7.94862L74.3713 16.3153L74.355 16.4578L74.325 16.51H72.7531L52.0172 8.89036Z" fill="white"/>
<path fill-rule="evenodd" clip-rule="evenodd" d="M52.0165 16.4979L34.2231 16.5186L52.0165 9.85596L69.8094 16.5186L52.0165 16.4979Z" fill="white"/>
<path fill-rule="evenodd" clip-rule="evenodd" d="M30.2021 17.3963L52.0169 17.4106L73.8316 17.3963L73.3228 18.2779L73.339 18.2818H52.0169H30.6947L30.711 18.2779L30.2021 17.3963Z" fill="white"/>
<path d="M3.3969 21.6706H0.378418V50.5449H3.3969V21.6706Z" fill="white"/>
<path d="M103.654 21.6706H100.636V50.5449H103.654V21.6706Z" fill="white"/>
<path fill-rule="evenodd" clip-rule="evenodd" d="M17.4361 33.566C20.2549 33.566 22.5402 35.8513 22.5402 38.6701L22.5925 52.6941H12.3877C12.3877 48.0209 12.333 43.3364 12.333 38.6701C12.333 35.8513 14.6178 33.566 17.4366 33.566H17.4361ZM13.753 38.5967H21.2272V51.5324H13.753V38.5967ZM15.9274 35.2109H19.0425L18.4143 37.4262H16.6319L15.9274 35.2109Z" fill="white"/>
<path fill-rule="evenodd" clip-rule="evenodd" d="M86.5968 33.566C83.778 33.566 81.4927 35.8513 81.4927 38.6701L81.4409 52.6941H91.6457C91.6457 48.0209 91.7004 43.3364 91.7004 38.6701C91.7004 35.8513 89.4151 33.566 86.5963 33.566H86.5968ZM90.2799 38.5967H82.8057V51.5324H90.2799V38.5967ZM88.1055 35.2109H84.9904L85.6186 37.4262H87.401L88.1055 35.2109Z" fill="white"/>
<path fill-rule="evenodd" clip-rule="evenodd" d="M15.6425 26.7899V24.2369H17.3026V26.7899H15.6425ZM17.8351 24.2369H19.4953V26.7899H17.8351V24.2369ZM19.4953 27.3219V29.8749H17.8351V27.3219H19.4953ZM17.3026 29.8749H15.6425V27.3219H17.3026V29.8749ZM20.1949 23.589H14.9424V30.5228H20.1949V23.589Z" fill="white"/>
<path fill-rule="evenodd" clip-rule="evenodd" d="M88.3913 26.7899V24.2369H86.7312V26.7899H88.3913ZM86.1986 24.2369H84.5385V26.7899H86.1986V24.2369ZM84.5385 27.3219V29.8749H86.1986V27.3219H84.5385ZM86.7312 29.8749H88.3913V27.3219H86.7312V29.8749ZM83.8384 23.589H89.0909V30.5228H83.8384V23.589Z" fill="white"/>
<path d="M3.41859 51.3688H0.378418V52.6941H3.41859V51.3688Z" fill="white"/>
<path d="M103.654 51.3688H100.614V52.6941H103.654V51.3688Z" fill="white"/>
<path fill-rule="evenodd" clip-rule="evenodd" d="M0.390625 53.4302H28.5381V54.6757L20.5211 54.6796L20.5082 54.3488L14.5802 54.366L14.5847 54.7516L0.390625 54.7319V53.4302Z" fill="white"/>
<path fill-rule="evenodd" clip-rule="evenodd" d="M103.643 53.4302H75.4946V54.6757L83.5117 54.6796L83.525 54.3488L89.4525 54.366L89.4486 54.7516L103.643 54.7319V53.4302Z" fill="white"/>
<path fill-rule="evenodd" clip-rule="evenodd" d="M0.378418 55.405H28.5377V56.5593C25.4083 56.5593 22.2794 56.5593 19.15 56.5593C19.0632 56.4701 18.903 56.3591 18.687 56.2605C18.3281 56.0628 17.9159 55.9504 17.4771 55.9504C16.9367 55.9504 16.4357 56.121 16.0255 56.4114C15.9461 56.4562 15.8667 56.505 15.7869 56.5588H0.378418V55.4045V55.405Z" fill="white"/>
<path fill-rule="evenodd" clip-rule="evenodd" d="M103.655 55.405H75.4956V56.5593C78.6245 56.5593 81.7539 56.5593 84.8834 56.5593C84.9701 56.4701 85.1304 56.3591 85.3463 56.2605C85.7053 56.0628 86.118 55.9504 86.5563 55.9504C87.0967 55.9504 87.5976 56.121 88.0073 56.4114C88.0867 56.4562 88.1666 56.505 88.2465 56.5588H103.655V55.4045V55.405Z" fill="white"/>
<path fill-rule="evenodd" clip-rule="evenodd" d="M15.3795 43.0561V40.0761H17.2748V43.0561H15.3795ZM17.7121 40.0761H19.6074V43.0561H17.7121V40.0761ZM19.6074 43.4935V46.5534H17.7121V43.4935H19.6074ZM19.6074 46.9907V49.9707H17.7121V46.9907H19.6074ZM17.2748 49.9707H15.3795V46.9907H17.2748V49.9707ZM15.3795 46.5534V43.4935H17.2748V46.5534H15.3795ZM20.3238 39.4899H14.667V50.6166H20.3238V39.4899Z" fill="white"/>
<path fill-rule="evenodd" clip-rule="evenodd" d="M88.6548 43.0561V40.0761H86.7595V43.0561H88.6548ZM86.3221 40.0761H84.4268V43.0561H86.3221V40.0761ZM84.4268 43.4935V46.5534H86.3221V43.4935H84.4268ZM84.4268 46.9907V49.9707H86.3221V46.9907H84.4268ZM86.7595 49.9707H88.6548V46.9907H86.7595V49.9707ZM88.6548 46.5534V43.4935H86.7595V46.5534H88.6548ZM83.7104 39.4899H89.3673V50.6166H83.7104V39.4899Z" fill="white"/>
<path fill-rule="evenodd" clip-rule="evenodd" d="M36.4 42.9671V39.9871H38.2953V42.9671H36.4ZM38.7326 39.9871H40.6279V42.9671H38.7326V39.9871ZM40.6279 43.4045V46.4644H38.7326V43.4045H40.6279ZM40.6279 46.9017V49.8817H38.7326V46.9017H40.6279ZM38.2953 49.8817H36.4V46.9017H38.2953V49.8817ZM36.4 46.4644V43.4045H38.2953V46.4644H36.4ZM41.3443 39.4009H35.6875V50.5276H41.3443V39.4009Z" fill="white"/>
<path fill-rule="evenodd" clip-rule="evenodd" d="M67.6328 42.9671V39.9871H65.7375V42.9671H67.6328ZM65.3002 39.9871H63.4049V42.9671H65.3002V39.9871ZM63.4049 43.4045V46.4644H65.3002V43.4045H63.4049ZM63.4049 46.9017V49.8817H65.3002V46.9017H63.4049ZM65.7375 49.8817H67.6328V46.9017H65.7375V49.8817ZM67.6328 46.4644V43.4045H65.7375V46.4644H67.6328ZM62.6885 39.4009H68.3453V50.5276H62.6885V39.4009Z" fill="white"/>
<path fill-rule="evenodd" clip-rule="evenodd" d="M0.378418 59.3536L52.0165 58.3L103.654 59.3536L103.655 60.4423L52.0165 59.0617L0.378418 60.4423V59.3536Z" fill="white"/>
<path fill-rule="evenodd" clip-rule="evenodd" d="M0.378418 57.3325L15.2268 57.3424C15.065 57.6664 14.9709 58.0307 14.964 58.4158L0.378418 58.4064V57.3321V57.3325ZM19.7279 57.3454L28.5373 57.3513V58.4242L19.9897 58.4188C19.9828 58.0337 19.8896 57.6698 19.7279 57.3454Z" fill="white"/>
<path fill-rule="evenodd" clip-rule="evenodd" d="M103.654 57.3325L88.8061 57.3424C88.9678 57.6664 89.062 58.0307 89.0694 58.4158L103.654 58.4064V57.3321V57.3325ZM84.305 57.3454L75.4956 57.3513V58.4242L84.0432 58.4188C84.0501 58.0337 84.1438 57.6698 84.305 57.3454Z" fill="white"/>
<path d="M38.2962 56.8146H29.292V57.5981H38.2962V56.8146Z" fill="white"/>
<path d="M74.7414 56.8146H65.6396V57.5981H74.7414V56.8146Z" fill="white"/>
<path d="M42.0281 53.1871H29.2915V53.9706H42.0281V53.1871Z" fill="white"/>
<path d="M74.7424 53.1871H62.0059V53.9706H74.7424V53.1871Z" fill="white"/>
<path fill-rule="evenodd" clip-rule="evenodd" d="M42.8237 53.1871H52.0167H61.2093V54.0258H52.0167H42.8237V53.1871Z" fill="white"/>
<path fill-rule="evenodd" clip-rule="evenodd" d="M29.2915 54.8954H52.0169H74.7418V55.7341H52.0169H29.2915V54.8954Z" fill="white"/>
<path fill-rule="evenodd" clip-rule="evenodd" d="M39.0854 56.6045H52.0163H64.9467V57.4437H52.0163H39.0854V56.6045Z" fill="white"/>
<path fill-rule="evenodd" clip-rule="evenodd" d="M30.7366 23.6972L31.2854 23.0715L32.3711 23.0735L32.8804 23.6987L32.9859 50.5515H30.6089L30.7366 23.6972Z" fill="white"/>
<path fill-rule="evenodd" clip-rule="evenodd" d="M73.2972 23.6972L72.7489 23.0715L71.6627 23.0735L71.1539 23.6987L71.0483 50.5515H73.4248L73.2972 23.6972Z" fill="white"/>
<path fill-rule="evenodd" clip-rule="evenodd" d="M43.8699 23.6972L44.4187 23.0715L45.5044 23.0735L46.0137 23.6987L46.1192 50.5515H43.7422L43.8699 23.6972Z" fill="white"/>
<path fill-rule="evenodd" clip-rule="evenodd" d="M60.1629 23.6972L59.6146 23.0715L58.5284 23.0735L58.0196 23.6987L57.9141 50.5515H60.2906L60.1629 23.6972Z" fill="white"/>
<path d="M33.4964 51.4623H29.833V52.1299H33.4964V51.4623Z" fill="white"/>
<path d="M74.2005 51.4623H70.5371V52.1299H74.2005V51.4623Z" fill="white"/>
<path d="M46.7576 51.4568H43.0942V52.1244H46.7576V51.4568Z" fill="white"/>
<path d="M60.9393 51.4568H57.2759V52.1244H60.9393V51.4568Z" fill="white"/>
<path d="M42.0208 38.2101H35.0254V38.8249H42.0208V38.2101Z" fill="white"/>
<path d="M69.0087 38.2101H62.0132V38.8249H69.0087V38.2101Z" fill="white"/>
<path fill-rule="evenodd" clip-rule="evenodd" d="M0.198242 19.0064H52.0163H103.834V20.1907H52.0163H0.198242V19.0064Z" fill="white"/>
<path fill-rule="evenodd" clip-rule="evenodd" d="M30.1315 22.1282C30.1315 21.96 30.269 21.8225 30.4371 21.8225H31.8172H33.1973C33.3654 21.8225 33.503 21.96 33.503 22.1282C33.503 22.2682 33.4078 22.387 33.2791 22.423C33.2545 22.4299 33.2288 22.4339 33.2022 22.4344C33.0622 22.4718 32.9591 22.6 32.9591 22.7519C32.9591 22.9097 33.0696 23.0413 33.2175 23.0734H33.2752C33.3112 23.0734 33.3467 23.0714 33.3817 23.0674C33.852 23.0142 34.2204 22.6123 34.2204 22.1286C34.2204 21.609 33.7949 21.1835 33.2752 21.1835H31.8172H30.3593C29.8396 21.1835 29.4146 21.6085 29.4146 22.1286C29.4146 22.6123 29.7829 23.0142 30.2527 23.0674C30.2878 23.0714 30.3233 23.0734 30.3593 23.0734H30.4169C30.5649 23.0413 30.6753 22.9097 30.6753 22.7519C30.6753 22.6 30.5722 22.4723 30.4322 22.4344C30.4056 22.4339 30.3795 22.4299 30.3553 22.423C30.2266 22.387 30.1315 22.2682 30.1315 22.1282Z" fill="white"/>
<path fill-rule="evenodd" clip-rule="evenodd" d="M73.9024 22.1282C73.9024 21.96 73.7643 21.8225 73.5962 21.8225H72.2161H70.8361C70.6675 21.8225 70.5299 21.96 70.5299 22.1282C70.5299 22.2682 70.6251 22.387 70.7537 22.423C70.7784 22.4299 70.804 22.4339 70.8307 22.4344C70.9707 22.4718 71.0737 22.6 71.0737 22.7519C71.0737 22.9097 70.9628 23.0413 70.8154 23.0734H70.7577C70.7217 23.0734 70.6862 23.0714 70.6512 23.0674C70.1813 23.0142 69.813 22.6123 69.813 22.1286C69.813 21.609 70.238 21.1835 70.7577 21.1835H72.2156H73.6741C74.1938 21.1835 74.6188 21.6085 74.6188 22.1286C74.6188 22.6123 74.2505 23.0142 73.7801 23.0674C73.7456 23.0714 73.7096 23.0734 73.6741 23.0734H73.6164C73.4685 23.0413 73.358 22.9097 73.358 22.7519C73.358 22.6 73.4611 22.4723 73.6011 22.4344C73.6278 22.4339 73.6534 22.4299 73.6781 22.423C73.8067 22.387 73.9019 22.2682 73.9019 22.1282H73.9024Z" fill="white"/>
<path fill-rule="evenodd" clip-rule="evenodd" d="M43.2398 22.0951C43.2398 21.927 43.3774 21.7894 43.546 21.7894H44.9236H46.3012C46.4693 21.7894 46.6069 21.927 46.6069 22.0951C46.6069 22.2352 46.5118 22.354 46.3831 22.39C46.3584 22.3969 46.3328 22.4008 46.3062 22.4013C46.1661 22.4388 46.0631 22.567 46.0631 22.7188C46.0631 22.8766 46.1735 23.0083 46.3214 23.0403H46.3791C46.4151 23.0403 46.4506 23.0383 46.4856 23.0344C46.956 22.9811 47.3243 22.5793 47.3243 22.0956C47.3243 21.5759 46.8988 21.1504 46.3791 21.1504H44.9236H43.4681C42.9484 21.1504 42.5234 21.5754 42.5234 22.0956C42.5234 22.5793 42.8917 22.9811 43.3616 23.0344C43.3966 23.0383 43.4321 23.0403 43.4681 23.0403H43.5258C43.6737 23.0083 43.7842 22.8766 43.7842 22.7188C43.7842 22.567 43.6811 22.4393 43.5411 22.4013C43.5145 22.4008 43.4888 22.3969 43.4642 22.39C43.3355 22.354 43.2403 22.2352 43.2403 22.0951H43.2398Z" fill="white"/>
<path fill-rule="evenodd" clip-rule="evenodd" d="M60.7934 22.0951C60.7934 21.927 60.6559 21.7894 60.4877 21.7894H59.1102H57.7326C57.5644 21.7894 57.4264 21.927 57.4264 22.0951C57.4264 22.2352 57.5215 22.354 57.6502 22.39C57.6749 22.3969 57.7005 22.4008 57.7271 22.4013C57.8672 22.4388 57.9702 22.567 57.9702 22.7188C57.9702 22.8766 57.8598 23.0083 57.7119 23.0403H57.6542C57.6182 23.0403 57.5827 23.0383 57.5481 23.0344C57.0778 22.9811 56.7095 22.5793 56.7095 22.0956C56.7095 21.5759 57.1345 21.1504 57.6542 21.1504H59.1097H60.5652C61.0848 21.1504 61.5104 21.5754 61.5104 22.0956C61.5104 22.5793 61.142 22.9811 60.6717 23.0344C60.6366 23.0383 60.6012 23.0403 60.5652 23.0403H60.5075C60.3595 23.0083 60.2491 22.8766 60.2491 22.7188C60.2491 22.567 60.3521 22.4393 60.4922 22.4013C60.5188 22.4008 60.5444 22.3969 60.5691 22.39C60.6978 22.354 60.7929 22.2352 60.7929 22.0951H60.7934Z" fill="white"/>
<path fill-rule="evenodd" clip-rule="evenodd" d="M36.626 26.7841V24.1926H38.2561V26.7841H36.626ZM38.7935 24.1926H40.4236V26.7841H38.7935V24.1926ZM40.4236 27.321V29.9125H38.7935V27.321H40.4236ZM38.2561 29.9125H36.626V27.321H38.2561V29.9125ZM40.9354 23.6532H36.1138V30.4524H40.9354V23.6532Z" fill="white"/>
<path fill-rule="evenodd" clip-rule="evenodd" d="M67.4074 26.7841V24.1926H65.7774V26.7841H67.4074ZM65.2405 24.1926H63.6104V26.7841H65.2405V24.1926ZM63.6104 27.321V29.9125H65.2405V27.321H63.6104ZM65.7774 29.9125H67.4074V27.321H65.7774V29.9125ZM63.0981 23.6532H67.9202V30.4524H63.0981V23.6532Z" fill="white"/>
<path fill-rule="evenodd" clip-rule="evenodd" d="M50.1139 26.7859V24.1944H51.7439V26.7859H50.1139ZM52.2808 24.1944H53.9109V26.7859H52.2808V24.1944ZM53.9109 27.3229V29.9143H52.2808V27.3229H53.9109ZM51.7439 29.9143H50.1139V27.3229H51.7439V29.9143ZM54.4232 23.655H49.6011V30.4542H54.4232V23.655Z" fill="white"/>
<path fill-rule="evenodd" clip-rule="evenodd" d="M47.9746 37.4324L52.0172 35.788L56.0592 37.4324L52.0172 37.4353L47.9746 37.4324Z" fill="white"/>
<path fill-rule="evenodd" clip-rule="evenodd" d="M49.8236 41.611V40.0037H52.0172H54.2133V41.611H52.0172H49.8236ZM52.0172 39.0018H48.8291V52.1294H52.0172H55.2142V39.0018H52.0172ZM52.3461 42.5996H54.2133V47.7944H52.3461V42.5996ZM52.3461 48.5582H54.2133V51.1438H52.3461V48.5582ZM49.8256 47.7905V42.5962H51.6928V47.7905H49.8256ZM49.8256 48.5567H51.6928V51.1423H49.8256V48.5567Z" fill="white"/>
<path fill-rule="evenodd" clip-rule="evenodd" d="M104.033 11.8584H97.8697L96.2973 8.84678H58.3223L60.3857 9.81662H95.5903L96.6735 11.8658L69.8425 11.8584V12.8647H104.033V11.8584Z" fill="white"/>
<path d="M103.308 13.5119H100.149V15.6138H103.308V13.5119Z" fill="white"/>
<path d="M92.7746 13.5202H92.1006V15.5866H92.7746V13.5202Z" fill="white"/>
<path d="M80.6926 13.5202H80.0186V15.5866H80.6926V13.5202Z" fill="white"/>
<path d="M91.426 13.5202H90.752V15.5866H91.426V13.5202Z" fill="white"/>
<path d="M99.4821 13.5202H98.8081V15.5866H99.4821V13.5202Z" fill="white"/>
<path d="M79.3444 13.5202H78.6704V15.5866H79.3444V13.5202Z" fill="white"/>
<path d="M90.0778 13.5202H89.4038V15.5866H90.0778V13.5202Z" fill="white"/>
<path d="M98.1335 13.5202H97.4595V15.5866H98.1335V13.5202Z" fill="white"/>
<path d="M77.9958 13.5202H77.3218V15.5866H77.9958V13.5202Z" fill="white"/>
<path d="M88.7306 13.5202H88.0566V15.5866H88.7306V13.5202Z" fill="white"/>
<path d="M96.7858 13.5202H96.1118V15.5866H96.7858V13.5202Z" fill="white"/>
<path d="M76.6477 13.5202H75.9736V15.5866H76.6477V13.5202Z" fill="white"/>
<path d="M87.382 13.5202H86.708V15.5866H87.382V13.5202Z" fill="white"/>
<path d="M95.4377 13.5202H94.7637V15.5866H95.4377V13.5202Z" fill="white"/>
<path d="M86.0334 13.5202H85.3594V15.5866H86.0334V13.5202Z" fill="white"/>
<path d="M94.089 13.5202H93.415V15.5866H94.089V13.5202Z" fill="white"/>
<path d="M84.6852 13.5202H84.0112V15.5866H84.6852V13.5202Z" fill="white"/>
<path d="M83.3371 13.5202H82.6631V15.5866H83.3371V13.5202Z" fill="white"/>
<path d="M81.9885 13.5202H81.3145V15.5866H81.9885V13.5202Z" fill="white"/>
<path fill-rule="evenodd" clip-rule="evenodd" d="M55.7009 33.927V32.8009H48.3096V33.927H55.7009Z" fill="white"/>
<path fill-rule="evenodd" clip-rule="evenodd" d="M69.2122 33.9298V32.8036H61.8213V33.9298H69.2122Z" fill="white"/>
<path fill-rule="evenodd" clip-rule="evenodd" d="M42.2024 33.9146V32.789H34.8115V33.9146H42.2024Z" fill="white"/>
<path d="M30.6631 38.2211H22.543V39.4922H30.6631V38.2211Z" fill="white"/>
<path d="M12.3331 38.2211H3.39746V39.4922H12.3331V38.2211Z" fill="white"/>
<path d="M100.654 38.2211H91.21V39.4922H100.654V38.2211Z" fill="white"/>
<path d="M82.3244 38.2211H73.1284V39.4922H82.3244V38.2211Z" fill="white"/>
<path d="M15.7447 70.9497H13.9322C13.8991 70.7152 13.8315 70.5069 13.7294 70.3248C13.6273 70.14 13.4963 69.9827 13.3363 69.8531C13.1762 69.7234 12.9914 69.6241 12.7817 69.5551C12.5748 69.4862 12.35 69.4517 12.1072 69.4517C11.6685 69.4517 11.2864 69.5606 10.9609 69.7786C10.6353 69.9938 10.3829 70.3083 10.2036 70.7221C10.0243 71.1332 9.9346 71.6325 9.9346 72.2202C9.9346 72.8244 10.0243 73.332 10.2036 73.743C10.3857 74.1541 10.6395 74.4645 10.965 74.6742C11.2906 74.8838 11.6672 74.9887 12.0948 74.9887C12.3348 74.9887 12.5569 74.9569 12.761 74.8935C12.968 74.83 13.1514 74.7376 13.3114 74.6162C13.4714 74.4921 13.6039 74.3417 13.7087 74.1652C13.8163 73.9886 13.8908 73.7872 13.9322 73.561L15.7447 73.5692C15.6978 73.9582 15.5806 74.3334 15.393 74.6948C15.2081 75.0535 14.9585 75.3749 14.6439 75.6591C14.3322 75.9405 13.9598 76.1639 13.5266 76.3295C13.0962 76.4922 12.6093 76.5736 12.0658 76.5736C11.3099 76.5736 10.634 76.4026 10.0381 76.0605C9.44491 75.7184 8.97591 75.2232 8.63105 74.5748C8.28895 73.9265 8.11791 73.1416 8.11791 72.2202C8.11791 71.296 8.29171 70.5097 8.63933 69.8614C8.98694 69.213 9.4587 68.7192 10.0546 68.3799C10.6505 68.0378 11.3209 67.8667 12.0658 67.8667C12.5569 67.8667 13.0121 67.9357 13.4314 68.0736C13.8535 68.2116 14.2274 68.413 14.5529 68.6778C14.8784 68.9399 15.1433 69.2613 15.3475 69.642C15.5544 70.0228 15.6868 70.4586 15.7447 70.9497ZM18.8215 67.9826V76.4577H17.0297V67.9826H18.8215ZM27.3846 67.9826V76.4577H25.8369L22.1497 71.1235H22.0876V76.4577H20.2958V67.9826H21.8683L25.5265 73.3127H25.601V67.9826H27.3846ZM28.5423 69.4599V67.9826H35.5029V69.4599H32.9082V76.4577H31.137V69.4599H28.5423ZM41.2468 70.42C41.2137 70.0862 41.0716 69.8269 40.8205 69.642C40.5695 69.4572 40.2288 69.3648 39.7984 69.3648C39.5059 69.3648 39.259 69.4061 39.0576 69.4889C38.8562 69.5689 38.7017 69.6807 38.5941 69.8241C38.4893 69.9676 38.4369 70.1303 38.4369 70.3124C38.4314 70.4642 38.4631 70.5966 38.5321 70.7097C38.6038 70.8228 38.7017 70.9208 38.8259 71.0035C38.95 71.0835 39.0935 71.1539 39.2563 71.2146C39.419 71.2725 39.5928 71.3222 39.7777 71.3635L40.5391 71.5456C40.9088 71.6284 41.2481 71.7387 41.5571 71.8767C41.8661 72.0146 42.1337 72.1843 42.36 72.3857C42.5862 72.5871 42.7614 72.8244 42.8855 73.0975C43.0124 73.3706 43.0773 73.6837 43.08 74.0369C43.0773 74.5555 42.9448 75.0052 42.6827 75.3859C42.4234 75.7639 42.0482 76.0577 41.5571 76.2674C41.0688 76.4743 40.4798 76.5778 39.7901 76.5778C39.1059 76.5778 38.51 76.4729 38.0024 76.2633C37.4975 76.0536 37.103 75.7432 36.8188 75.3321C36.5374 74.9183 36.3898 74.4065 36.376 73.7968H38.11C38.1293 74.081 38.2107 74.3183 38.3541 74.5086C38.5003 74.6962 38.6948 74.8383 38.9376 74.9349C39.1832 75.0287 39.4604 75.0756 39.7694 75.0756C40.0729 75.0756 40.3363 75.0314 40.5598 74.9431C40.786 74.8549 40.9612 74.7321 41.0854 74.5748C41.2095 74.4176 41.2716 74.2369 41.2716 74.0327C41.2716 73.8424 41.215 73.6824 41.1019 73.5527C40.9916 73.423 40.8288 73.3127 40.6136 73.2216C40.4012 73.1306 40.1405 73.0478 39.8315 72.9733L38.9086 72.7416C38.1941 72.5678 37.6299 72.296 37.2161 71.9264C36.8023 71.5567 36.5967 71.0587 36.5995 70.4324C36.5967 69.9193 36.7333 69.471 37.0092 69.0875C37.2878 68.704 37.6699 68.4047 38.1555 68.1895C38.641 67.9743 39.1928 67.8667 39.8108 67.8667C40.4398 67.8667 40.9888 67.9743 41.4578 68.1895C41.9296 68.4047 42.2965 68.704 42.5586 69.0875C42.8207 69.471 42.9559 69.9152 42.9641 70.42H41.2468ZM46.9824 76.4577V67.9826H52.6932V69.4599H48.7743V71.4794H52.3994V72.9568H48.7743V74.9804H52.7098V76.4577H46.9824ZM58.7154 70.42C58.6823 70.0862 58.5402 69.8269 58.2892 69.642C58.0381 69.4572 57.6974 69.3648 57.267 69.3648C56.9746 69.3648 56.7277 69.4061 56.5263 69.4889C56.3249 69.5689 56.1704 69.6807 56.0628 69.8241C55.9579 69.9676 55.9055 70.1303 55.9055 70.3124C55.9 70.4642 55.9317 70.5966 56.0007 70.7097C56.0724 70.8228 56.1704 70.9208 56.2945 71.0035C56.4187 71.0835 56.5621 71.1539 56.7249 71.2146C56.8877 71.2725 57.0615 71.3222 57.2463 71.3635L58.0078 71.5456C58.3774 71.6284 58.7168 71.7387 59.0258 71.8767C59.3348 72.0146 59.6024 72.1843 59.8286 72.3857C60.0548 72.5871 60.23 72.8244 60.3542 73.0975C60.4811 73.3706 60.5459 73.6837 60.5487 74.0369C60.5459 74.5555 60.4135 75.0052 60.1514 75.3859C59.892 75.7639 59.5168 76.0577 59.0258 76.2674C58.5375 76.4743 57.9484 76.5778 57.2587 76.5778C56.5745 76.5778 55.9786 76.4729 55.471 76.2633C54.9661 76.0536 54.5716 75.7432 54.2875 75.3321C54.0061 74.9183 53.8585 74.4065 53.8447 73.7968H55.5786C55.5979 74.081 55.6793 74.3183 55.8228 74.5086C55.969 74.6962 56.1635 74.8383 56.4063 74.9349C56.6518 75.0287 56.9291 75.0756 57.238 75.0756C57.5415 75.0756 57.805 75.0314 58.0285 74.9431C58.2547 74.8549 58.4299 74.7321 58.554 74.5748C58.6782 74.4176 58.7402 74.2369 58.7402 74.0327C58.7402 73.8424 58.6837 73.6824 58.5706 73.5527C58.4602 73.423 58.2974 73.3127 58.0822 73.2216C57.8698 73.1306 57.6091 73.0478 57.3001 72.9733L56.3773 72.7416C55.6627 72.5678 55.0986 72.296 54.6847 71.9264C54.2709 71.5567 54.0654 71.0587 54.0681 70.4324C54.0654 69.9193 54.2019 69.471 54.4778 69.0875C54.7565 68.704 55.1386 68.4047 55.6241 68.1895C56.1097 67.9743 56.6614 67.8667 57.2794 67.8667C57.9084 67.8667 58.4575 67.9743 58.9265 68.1895C59.3982 68.4047 59.7651 68.704 60.0272 69.0875C60.2893 69.471 60.4245 69.9152 60.4328 70.42H58.7154ZM61.4311 69.4599V67.9826H68.3917V69.4599H65.797V76.4577H64.0258V69.4599H61.4311ZM69.9632 76.4577H68.043L70.9688 67.9826H73.2779L76.1996 76.4577H74.2794L72.1565 69.9193H72.0903L69.9632 76.4577ZM69.8432 73.1264H74.3787V74.5252H69.8432V73.1264ZM75.8613 69.4599V67.9826H82.8218V69.4599H80.2271V76.4577H78.456V69.4599H75.8613ZM83.9681 76.4577V67.9826H89.6789V69.4599H85.76V71.4794H89.3851V72.9568H85.76V74.9804H89.6955V76.4577H83.9681Z" fill="#B18B5C"/>
</svg>
