<svg width="179" height="115" viewBox="0 0 179 115" fill="none" xmlns="http://www.w3.org/2000/svg">
<path d="M112.833 30.9999V16.6666C112.833 14.8332 111.333 13.3332 109.5 13.3332H106.167C104.333 13.3332 102.833 14.8332 102.833 16.6666V21.9999L91.7332 11.9999C90.4665 10.8666 88.5332 10.8666 87.2665 11.9999L59.3998 37.0999C58.2665 38.0999 58.9665 39.9999 60.4998 39.9999H66.1665V63.3332C66.1665 65.1666 67.6665 66.6666 69.4998 66.6666H79.4998C81.3332 66.6666 82.8332 65.1666 82.8332 63.3332V46.6666H96.1665V63.3332C96.1665 65.1666 97.6665 66.6666 99.4998 66.6666H109.5C111.333 66.6666 112.833 65.1666 112.833 63.3332V39.9999H118.5C120.033 39.9999 120.767 38.0999 119.6 37.0999L112.833 30.9999ZM82.8332 33.3332C82.8332 29.6666 85.8332 26.6666 89.4998 26.6666C93.1665 26.6666 96.1665 29.6666 96.1665 33.3332H82.8332Z" fill="#A78F6B"/>
<path d="M33.52 101.782H37.732C38.224 101.782 38.65 101.728 39.01 101.62C39.37 101.5 39.67 101.344 39.91 101.152C40.15 100.948 40.33 100.714 40.45 100.45C40.57 100.186 40.63 99.904 40.63 99.604C40.63 97.996 39.664 97.192 37.732 97.192H33.52V101.782ZM32.296 96.148H37.732C38.272 96.148 38.788 96.202 39.28 96.31C39.784 96.406 40.222 96.58 40.594 96.832C40.978 97.072 41.284 97.396 41.512 97.804C41.74 98.2 41.854 98.698 41.854 99.298C41.854 99.634 41.8 99.964 41.692 100.288C41.584 100.6 41.428 100.888 41.224 101.152C41.032 101.404 40.798 101.62 40.522 101.8C40.258 101.98 39.958 102.106 39.622 102.178V102.214C40.45 102.322 41.11 102.664 41.602 103.24C42.094 103.804 42.34 104.506 42.34 105.346C42.34 105.55 42.322 105.784 42.286 106.048C42.25 106.3 42.178 106.564 42.07 106.84C41.962 107.104 41.806 107.368 41.602 107.632C41.398 107.896 41.122 108.13 40.774 108.334C40.438 108.526 40.018 108.688 39.514 108.82C39.022 108.94 38.428 109 37.732 109H32.296V96.148ZM33.52 107.956H37.732C38.188 107.956 38.62 107.92 39.028 107.848C39.436 107.764 39.796 107.62 40.108 107.416C40.42 107.212 40.666 106.942 40.846 106.606C41.026 106.258 41.116 105.826 41.116 105.31C41.116 104.482 40.822 103.864 40.234 103.456C39.658 103.036 38.824 102.826 37.732 102.826H33.52V107.956ZM51.6099 109H50.5659V107.326H50.5299C50.2299 107.95 49.7919 108.43 49.2159 108.766C48.6519 109.09 48.0219 109.252 47.3259 109.252C46.7379 109.252 46.2339 109.168 45.8139 109C45.4059 108.844 45.0699 108.616 44.8059 108.316C44.5539 108.016 44.3679 107.65 44.2479 107.218C44.1279 106.786 44.0679 106.294 44.0679 105.742V99.712H45.2019V105.76C45.2259 106.6 45.4179 107.236 45.7779 107.668C46.1499 108.1 46.7859 108.316 47.6859 108.316C48.1779 108.316 48.5979 108.214 48.9459 108.01C49.2939 107.794 49.5819 107.512 49.8099 107.164C50.0379 106.816 50.2059 106.42 50.3139 105.976C50.4219 105.52 50.4759 105.058 50.4759 104.59V99.712H51.6099V109ZM52.7098 99.712H53.9158L56.9758 107.632L59.8378 99.712H60.9718L56.9398 110.404C56.7718 110.8 56.6158 111.124 56.4718 111.376C56.3278 111.64 56.1658 111.844 55.9858 111.988C55.8178 112.144 55.6138 112.252 55.3738 112.312C55.1458 112.384 54.8518 112.42 54.4918 112.42C54.2638 112.408 54.0838 112.396 53.9518 112.384C53.8318 112.384 53.7238 112.366 53.6278 112.33V111.376C53.7598 111.4 53.8858 111.418 54.0058 111.43C54.1378 111.454 54.2698 111.466 54.4018 111.466C54.6538 111.466 54.8578 111.43 55.0138 111.358C55.1818 111.286 55.3258 111.184 55.4458 111.052C55.5658 110.932 55.6678 110.782 55.7518 110.602C55.8358 110.422 55.9258 110.224 56.0218 110.008L56.4178 108.964L52.7098 99.712ZM69.1296 103.96H74.1876L71.7036 97.372L69.1296 103.96ZM71.0736 96.148H72.4416L77.4816 109H76.1676L74.6016 105.004H68.7516L67.2036 109H65.9076L71.0736 96.148ZM78.4335 99.712H79.4775V101.476H79.5135C79.7775 100.828 80.2035 100.33 80.7915 99.982C81.3915 99.622 82.0695 99.442 82.8255 99.442C83.5335 99.442 84.1455 99.574 84.6615 99.838C85.1895 100.102 85.6275 100.462 85.9755 100.918C86.3235 101.362 86.5815 101.884 86.7495 102.484C86.9175 103.072 87.0015 103.696 87.0015 104.356C87.0015 105.016 86.9175 105.646 86.7495 106.246C86.5815 106.834 86.3235 107.356 85.9755 107.812C85.6275 108.256 85.1895 108.61 84.6615 108.874C84.1455 109.126 83.5335 109.252 82.8255 109.252C82.4895 109.252 82.1535 109.21 81.8175 109.126C81.4815 109.042 81.1695 108.916 80.8815 108.748C80.5935 108.58 80.3355 108.37 80.1075 108.118C79.8915 107.866 79.7235 107.572 79.6035 107.236H79.5675V112.42H78.4335V99.712ZM85.8675 104.356C85.8675 103.876 85.8075 103.402 85.6875 102.934C85.5795 102.454 85.3995 102.028 85.1475 101.656C84.9075 101.284 84.5955 100.984 84.2115 100.756C83.8275 100.516 83.3655 100.396 82.8255 100.396C82.2015 100.396 81.6795 100.504 81.2595 100.72C80.8395 100.936 80.5035 101.224 80.2515 101.584C79.9995 101.944 79.8195 102.364 79.7115 102.844C79.6155 103.324 79.5675 103.828 79.5675 104.356C79.5675 104.836 79.6215 105.316 79.7295 105.796C79.8495 106.264 80.0355 106.684 80.2875 107.056C80.5515 107.428 80.8875 107.734 81.2955 107.974C81.7155 108.202 82.2255 108.316 82.8255 108.316C83.3655 108.316 83.8275 108.202 84.2115 107.974C84.5955 107.734 84.9075 107.428 85.1475 107.056C85.3995 106.684 85.5795 106.264 85.6875 105.796C85.8075 105.316 85.8675 104.836 85.8675 104.356ZM88.6615 102.556C88.6975 102.016 88.8115 101.548 89.0035 101.152C89.1955 100.756 89.4535 100.432 89.7775 100.18C90.1135 99.928 90.5035 99.742 90.9475 99.622C91.3915 99.502 91.8835 99.442 92.4235 99.442C92.8315 99.442 93.2395 99.484 93.6475 99.568C94.0555 99.64 94.4215 99.784 94.7455 100C95.0695 100.216 95.3335 100.522 95.5375 100.918C95.7415 101.302 95.8435 101.806 95.8435 102.43V107.362C95.8435 107.818 96.0655 108.046 96.5095 108.046C96.6415 108.046 96.7615 108.022 96.8695 107.974V108.928C96.7375 108.952 96.6175 108.97 96.5095 108.982C96.4135 108.994 96.2875 109 96.1315 109C95.8435 109 95.6095 108.964 95.4295 108.892C95.2615 108.808 95.1295 108.694 95.0335 108.55C94.9375 108.406 94.8715 108.238 94.8355 108.046C94.8115 107.842 94.7995 107.62 94.7995 107.38H94.7635C94.5595 107.68 94.3495 107.95 94.1335 108.19C93.9295 108.418 93.6955 108.61 93.4315 108.766C93.1795 108.922 92.8855 109.042 92.5495 109.126C92.2255 109.21 91.8355 109.252 91.3795 109.252C90.9475 109.252 90.5395 109.198 90.1555 109.09C89.7835 108.994 89.4535 108.838 89.1655 108.622C88.8895 108.394 88.6675 108.112 88.4995 107.776C88.3435 107.428 88.2655 107.02 88.2655 106.552C88.2655 105.904 88.4095 105.4 88.6975 105.04C88.9855 104.668 89.3635 104.386 89.8315 104.194C90.3115 104.002 90.8455 103.87 91.4335 103.798C92.0335 103.714 92.6395 103.636 93.2515 103.564C93.4915 103.54 93.7015 103.51 93.8815 103.474C94.0615 103.438 94.2115 103.378 94.3315 103.294C94.4515 103.198 94.5415 103.072 94.6015 102.916C94.6735 102.76 94.7095 102.556 94.7095 102.304C94.7095 101.92 94.6435 101.608 94.5115 101.368C94.3915 101.116 94.2175 100.918 93.9895 100.774C93.7735 100.63 93.5155 100.534 93.2155 100.486C92.9275 100.426 92.6155 100.396 92.2795 100.396C91.5595 100.396 90.9715 100.57 90.5155 100.918C90.0595 101.254 89.8195 101.8 89.7955 102.556H88.6615ZM94.7095 103.924H94.6735C94.6015 104.056 94.4635 104.152 94.2595 104.212C94.0555 104.272 93.8755 104.314 93.7195 104.338C93.2395 104.422 92.7415 104.5 92.2255 104.572C91.7215 104.632 91.2595 104.728 90.8395 104.86C90.4195 104.992 90.0715 105.184 89.7955 105.436C89.5315 105.676 89.3995 106.024 89.3995 106.48C89.3995 106.768 89.4535 107.026 89.5615 107.254C89.6815 107.47 89.8375 107.662 90.0295 107.83C90.2215 107.986 90.4435 108.106 90.6955 108.19C90.9475 108.274 91.2055 108.316 91.4695 108.316C91.9015 108.316 92.3155 108.25 92.7115 108.118C93.1075 107.986 93.4495 107.794 93.7375 107.542C94.0375 107.29 94.2715 106.984 94.4395 106.624C94.6195 106.264 94.7095 105.856 94.7095 105.4V103.924ZM98.1034 99.712H99.1474V101.89H99.1834C99.4714 101.134 99.9154 100.552 100.515 100.144C101.127 99.736 101.853 99.55 102.693 99.586V100.72C102.177 100.696 101.709 100.768 101.289 100.936C100.869 101.092 100.503 101.32 100.191 101.62C99.8914 101.92 99.6574 102.28 99.4894 102.7C99.3214 103.108 99.2374 103.558 99.2374 104.05V109H98.1034V99.712ZM105.581 99.712H107.471V100.666H105.581V106.93C105.581 107.302 105.629 107.596 105.725 107.812C105.833 108.016 106.091 108.13 106.499 108.154C106.823 108.154 107.147 108.136 107.471 108.1V109.054C107.303 109.054 107.135 109.06 106.967 109.072C106.799 109.084 106.631 109.09 106.463 109.09C105.707 109.09 105.179 108.946 104.879 108.658C104.579 108.358 104.435 107.812 104.447 107.02V100.666H102.827V99.712H104.447V96.922H105.581V99.712ZM109.107 99.712H110.151V101.278H110.205C110.505 100.702 110.895 100.252 111.375 99.928C111.867 99.604 112.491 99.442 113.247 99.442C113.859 99.442 114.411 99.592 114.903 99.892C115.407 100.192 115.743 100.648 115.911 101.26C116.187 100.648 116.595 100.192 117.135 99.892C117.675 99.592 118.251 99.442 118.863 99.442C120.915 99.442 121.941 100.528 121.941 102.7V109H120.807V102.754C120.807 101.986 120.645 101.404 120.321 101.008C119.997 100.6 119.427 100.396 118.611 100.396C118.119 100.396 117.711 100.492 117.387 100.684C117.063 100.864 116.805 101.11 116.613 101.422C116.421 101.734 116.283 102.094 116.199 102.502C116.127 102.898 116.091 103.312 116.091 103.744V109H114.957V102.7C114.957 102.388 114.921 102.094 114.849 101.818C114.789 101.53 114.681 101.284 114.525 101.08C114.381 100.864 114.183 100.696 113.931 100.576C113.679 100.456 113.373 100.396 113.013 100.396C112.533 100.396 112.113 100.486 111.753 100.666C111.405 100.834 111.117 101.074 110.889 101.386C110.673 101.686 110.511 102.046 110.403 102.466C110.295 102.874 110.241 103.324 110.241 103.816V109H109.107V99.712ZM130.779 103.708C130.767 103.276 130.689 102.862 130.545 102.466C130.413 102.07 130.221 101.722 129.969 101.422C129.717 101.11 129.411 100.864 129.051 100.684C128.691 100.492 128.283 100.396 127.827 100.396C127.359 100.396 126.945 100.492 126.585 100.684C126.225 100.864 125.919 101.11 125.667 101.422C125.415 101.722 125.211 102.076 125.055 102.484C124.911 102.88 124.815 103.288 124.767 103.708H130.779ZM124.767 104.662C124.767 105.07 124.821 105.496 124.929 105.94C125.049 106.372 125.235 106.762 125.487 107.11C125.739 107.458 126.057 107.746 126.441 107.974C126.825 108.202 127.287 108.316 127.827 108.316C128.655 108.316 129.303 108.1 129.771 107.668C130.239 107.236 130.563 106.66 130.743 105.94H131.877C131.637 106.996 131.193 107.812 130.545 108.388C129.909 108.964 129.003 109.252 127.827 109.252C127.095 109.252 126.459 109.126 125.919 108.874C125.391 108.61 124.959 108.256 124.623 107.812C124.287 107.356 124.035 106.834 123.867 106.246C123.711 105.646 123.633 105.016 123.633 104.356C123.633 103.744 123.711 103.144 123.867 102.556C124.035 101.968 124.287 101.446 124.623 100.99C124.959 100.522 125.391 100.15 125.919 99.874C126.459 99.586 127.095 99.442 127.827 99.442C128.571 99.442 129.207 99.592 129.735 99.892C130.263 100.192 130.689 100.588 131.013 101.08C131.349 101.56 131.589 102.118 131.733 102.754C131.877 103.378 131.937 104.014 131.913 104.662H124.767ZM133.417 99.712H134.551V101.314H134.587C134.803 100.75 135.187 100.3 135.739 99.964C136.291 99.616 136.897 99.442 137.557 99.442C138.205 99.442 138.745 99.526 139.177 99.694C139.621 99.862 139.975 100.102 140.239 100.414C140.503 100.714 140.689 101.086 140.797 101.53C140.905 101.974 140.959 102.472 140.959 103.024V109H139.825V103.204C139.825 102.808 139.789 102.442 139.717 102.106C139.645 101.758 139.519 101.458 139.339 101.206C139.159 100.954 138.913 100.756 138.601 100.612C138.301 100.468 137.923 100.396 137.467 100.396C137.011 100.396 136.603 100.48 136.243 100.648C135.895 100.804 135.595 101.026 135.343 101.314C135.103 101.59 134.911 101.926 134.767 102.322C134.635 102.706 134.563 103.126 134.551 103.582V109H133.417V99.712ZM144.903 99.712H146.793V100.666H144.903V106.93C144.903 107.302 144.951 107.596 145.047 107.812C145.155 108.016 145.413 108.13 145.821 108.154C146.145 108.154 146.469 108.136 146.793 108.1V109.054C146.625 109.054 146.457 109.06 146.289 109.072C146.121 109.084 145.953 109.09 145.785 109.09C145.029 109.09 144.501 108.946 144.201 108.658C143.901 108.358 143.757 107.812 143.769 107.02V100.666H142.149V99.712H143.769V96.922H144.903V99.712Z" fill="white"/>
</svg>
