<svg width="64" height="64" viewBox="0 0 64 64" fill="none" xmlns="http://www.w3.org/2000/svg">
<circle cx="32" cy="32" r="32" fill="#A78F6B"/>
<path d="M21.3332 40H23.9998V45.4413L30.8012 40H37.3332C38.8038 40 39.9998 38.804 39.9998 37.3333V26.6667C39.9998 25.196 38.8038 24 37.3332 24H21.3332C19.8625 24 18.6665 25.196 18.6665 26.6667V37.3333C18.6665 38.804 19.8625 40 21.3332 40Z" fill="white"/>
<path d="M42.6667 18.6667H26.6667C25.196 18.6667 24 19.8627 24 21.3334H40C41.4707 21.3334 42.6667 22.5294 42.6667 24.0001V34.6667C44.1373 34.6667 45.3333 33.4707 45.3333 32.0001V21.3334C45.3333 19.8627 44.1373 18.6667 42.6667 18.6667Z" fill="white"/>
</svg>
