<svg width="56" height="56" viewBox="0 0 56 56" fill="none" xmlns="http://www.w3.org/2000/svg">
<circle cx="28" cy="28" r="27.5" fill="black" fill-opacity="0.08" stroke="#5D6C5F"/>
<path d="M32.2 28.0002C32.2 28.8309 31.9537 29.643 31.4922 30.3336C31.0307 31.0243 30.3747 31.5627 29.6073 31.8805C28.8398 32.1984 27.9953 32.2816 27.1806 32.1195C26.3659 31.9575 25.6175 31.5575 25.0302 30.9701C24.4428 30.3827 24.0428 29.6343 23.8807 28.8196C23.7186 28.0049 23.8018 27.1604 24.1197 26.393C24.4376 25.6255 24.9759 24.9696 25.6666 24.5081C26.3573 24.0466 27.1693 23.8002 28 23.8002C29.1128 23.8037 30.1791 24.2473 30.966 25.0342C31.7529 25.8211 32.1965 26.8874 32.2 28.0002ZM41.125 22.2252V33.7752C41.125 35.7246 40.3506 37.5941 38.9722 38.9725C37.5938 40.3509 35.7243 41.1252 33.775 41.1252H22.225C20.2757 41.1252 18.4062 40.3509 17.0278 38.9725C15.6494 37.5941 14.875 35.7246 14.875 33.7752V22.2252C14.875 20.2759 15.6494 18.4064 17.0278 17.028C18.4062 15.6496 20.2757 14.8752 22.225 14.8752H33.775C35.7243 14.8752 37.5938 15.6496 38.9722 17.028C40.3506 18.4064 41.125 20.2759 41.125 22.2252ZM34.3 28.0002C34.3 26.7542 33.9305 25.5362 33.2383 24.5002C32.546 23.4641 31.5621 22.6566 30.4109 22.1798C29.2597 21.703 27.993 21.5782 26.7709 21.8213C25.5489 22.0644 24.4263 22.6644 23.5452 23.5455C22.6642 24.4265 22.0641 25.5491 21.8211 26.7712C21.578 27.9933 21.7027 29.26 22.1796 30.4111C22.6564 31.5623 23.4639 32.5462 24.4999 33.2385C25.5359 33.9308 26.754 34.3002 28 34.3002C29.6709 34.3002 31.2733 33.6365 32.4548 32.455C33.6363 31.2735 34.3 29.6711 34.3 28.0002ZM36.4 21.1752C36.4 20.8637 36.3076 20.5592 36.1346 20.3002C35.9615 20.0412 35.7155 19.8393 35.4277 19.7201C35.1399 19.6009 34.8233 19.5697 34.5177 19.6305C34.2122 19.6913 33.9316 19.8413 33.7113 20.0616C33.491 20.2818 33.341 20.5625 33.2803 20.868C33.2195 21.1735 33.2507 21.4902 33.3699 21.778C33.4891 22.0658 33.691 22.3117 33.95 22.4848C34.209 22.6579 34.5135 22.7502 34.825 22.7502C35.2427 22.7502 35.6433 22.5843 35.9387 22.2889C36.2341 21.9936 36.4 21.593 36.4 21.1752Z" fill="#F3F3F3"/>
</svg>
