<svg width="142" height="124" viewBox="0 0 142 124" fill="none" xmlns="http://www.w3.org/2000/svg">
<rect width="142" height="124" rx="6" fill="#354737"/>
<path d="M43.5138 24.7366H42.5688V25.8574H43.5138V24.7366Z" fill="white"/>
<path d="M98.63 25.0156H97.6851V26.1364H98.63V25.0156Z" fill="white"/>
<path d="M44.8773 26.4827H38.5825V27.1545H44.8773V26.4827Z" fill="white"/>
<path d="M102.616 26.7617H96.3208V27.4336H102.616V26.7617Z" fill="white"/>
<path d="M55.2003 24H52.3433V24.6718H55.2003V24Z" fill="white"/>
<path d="M88.8551 24.2791H85.998V24.9509H88.8551V24.2791Z" fill="white"/>
<path d="M44.3369 27.7809H39.1978V31.7753H44.3369V27.7809Z" fill="white"/>
<path d="M102 28.06H96.8613V32.0543H102V28.06Z" fill="white"/>
<path d="M54.6674 25.2972H52.8545V31.7664H54.6674V25.2972Z" fill="white"/>
<path d="M88.3436 25.5764H86.5308V32.0456H88.3436V25.5764Z" fill="white"/>
<path d="M69.7822 25.4915H68.6304V26.6245H69.7822V25.4915Z" fill="white"/>
<path d="M72.5693 25.4915H71.4175V26.6245H72.5693V25.4915Z" fill="white"/>
<path d="M70.5987 27.2455H67.6504V27.9968H70.5987V27.2455Z" fill="white"/>
<path d="M73.5474 27.2455H70.5991V27.9968H73.5474V27.2455Z" fill="white"/>
<path fill-rule="evenodd" clip-rule="evenodd" d="M68.2515 28.6224H70.0606V30.5444L68.2515 31.3037V28.6224Z" fill="white"/>
<path fill-rule="evenodd" clip-rule="evenodd" d="M72.9478 28.6224H71.1387V30.5444L72.9478 31.3037V28.6224Z" fill="white"/>
<path fill-rule="evenodd" clip-rule="evenodd" d="M21 35.2719H26.8778L28.3771 32.3998H64.5877L62.6201 33.3251H29.0512L28.0179 35.279L53.6022 35.2719V36.2315H21V35.2719Z" fill="white"/>
<path fill-rule="evenodd" clip-rule="evenodd" d="M54.2144 34.9481H57.8885L54.2144 36.2964V34.9481Z" fill="white"/>
<path fill-rule="evenodd" clip-rule="evenodd" d="M86.9857 35.2282H83.312L86.9857 36.5761V35.2282Z" fill="white"/>
<path d="M24.7031 36.8841H21.6909V38.8883H24.7031V36.8841Z" fill="white"/>
<path fill-rule="evenodd" clip-rule="evenodd" d="M21.189 39.4883H48.0343L48.676 40.7182H21.189V39.4883Z" fill="white"/>
<path fill-rule="evenodd" clip-rule="evenodd" d="M120.01 39.4883H93.1642L92.5229 40.7182H120.01V39.4883Z" fill="white"/>
<path d="M32.379 36.892H31.7363V38.8624H32.379V36.892Z" fill="white"/>
<path d="M43.899 36.892H43.2563V38.8624H43.899V36.892Z" fill="white"/>
<path d="M33.6647 36.892H33.022V38.8624H33.6647V36.892Z" fill="white"/>
<path d="M25.9821 36.892H25.3394V38.8624H25.9821V36.892Z" fill="white"/>
<path d="M45.1852 36.892H44.5425V38.8624H45.1852V36.892Z" fill="white"/>
<path d="M34.9488 36.892H34.3062V38.8624H34.9488V36.892Z" fill="white"/>
<path d="M27.2677 36.892H26.625V38.8624H27.2677V36.892Z" fill="white"/>
<path d="M46.4698 36.892H45.8271V38.8624H46.4698V36.892Z" fill="white"/>
<path d="M36.235 36.892H35.5923V38.8624H36.235V36.892Z" fill="white"/>
<path d="M28.5529 36.892H27.9102V38.8624H28.5529V36.892Z" fill="white"/>
<path d="M47.7545 36.892H47.1118V38.8624H47.7545V36.892Z" fill="white"/>
<path d="M37.5206 36.892H36.8779V38.8624H37.5206V36.892Z" fill="white"/>
<path d="M29.839 36.892H29.1963V38.8624H29.839V36.892Z" fill="white"/>
<path d="M38.8058 36.892H38.1631V38.8624H38.8058V36.892Z" fill="white"/>
<path d="M31.1246 36.892H30.4819V38.8624H31.1246V36.892Z" fill="white"/>
<path d="M40.0919 36.892H39.4492V38.8624H40.0919V36.892Z" fill="white"/>
<path d="M41.3776 36.892H40.7349V38.8624H41.3776V36.892Z" fill="white"/>
<path d="M42.6622 36.892H42.0195V38.8624H42.6622V36.892Z" fill="white"/>
<path fill-rule="evenodd" clip-rule="evenodd" d="M70.6001 32.4772L50.8277 39.7428H49.3293L49.2997 39.6921L49.2847 39.5571L70.6001 31.5792L91.9156 39.5571L91.9001 39.693L91.8714 39.7428H90.3726L70.6001 32.4772Z" fill="white"/>
<path fill-rule="evenodd" clip-rule="evenodd" d="M70.5989 39.7314L53.6323 39.7511L70.5989 33.398L87.5651 39.7511L70.5989 39.7314Z" fill="white"/>
<path fill-rule="evenodd" clip-rule="evenodd" d="M49.7993 40.588L70.6004 40.6016L91.4015 40.588L90.9164 41.4286L90.9319 41.4324H70.6004H50.269L50.2845 41.4286L49.7993 40.588Z" fill="white"/>
<path d="M24.2386 44.6637H21.3604V72.1964H24.2386V44.6637Z" fill="white"/>
<path d="M119.838 44.6637H116.959V72.1964H119.838V44.6637Z" fill="white"/>
<path fill-rule="evenodd" clip-rule="evenodd" d="M37.6258 56.0064C40.3136 56.0064 42.4927 58.1855 42.4927 60.8733L42.5426 74.2457H32.8119C32.8119 69.7896 32.7598 65.3228 32.7598 60.8733C32.7598 58.1855 34.9384 56.0064 37.6262 56.0064H37.6258ZM34.1138 60.8033H41.2407V73.138H34.1138V60.8033ZM36.1871 57.5748H39.1575L38.5585 59.6871H36.859L36.1871 57.5748Z" fill="white"/>
<path fill-rule="evenodd" clip-rule="evenodd" d="M103.573 56.0064C100.885 56.0064 98.7061 58.1855 98.7061 60.8733L98.6567 74.2457H108.387C108.387 69.7896 108.44 65.3228 108.44 60.8733C108.44 58.1855 106.26 56.0064 103.573 56.0064H103.573ZM107.085 60.8033H99.9581V73.138H107.085V60.8033ZM105.012 57.5748H102.041L102.64 59.6871H104.34L105.012 57.5748Z" fill="white"/>
<path fill-rule="evenodd" clip-rule="evenodd" d="M35.9152 49.5451V47.1107H37.4982V49.5451H35.9152ZM38.0059 47.1107H39.5889V49.5451H38.0059V47.1107ZM39.5889 50.0524V52.4868H38.0059V50.0524H39.5889ZM37.4982 52.4868H35.9152V50.0524H37.4982V52.4868ZM40.256 46.4929H35.2476V53.1045H40.256V46.4929Z" fill="white"/>
<path fill-rule="evenodd" clip-rule="evenodd" d="M105.284 49.5451V47.1107H103.701V49.5451H105.284ZM103.193 47.1107H101.61V49.5451H103.193V47.1107ZM101.61 50.0524V52.4868H103.193V50.0524H101.61ZM103.701 52.4868H105.284V50.0524H103.701V52.4868ZM100.943 46.4929H105.951V53.1045H100.943V46.4929Z" fill="white"/>
<path d="M24.2593 72.982H21.3604V74.2458H24.2593V72.982Z" fill="white"/>
<path d="M119.838 72.982H116.939V74.2458H119.838V72.982Z" fill="white"/>
<path fill-rule="evenodd" clip-rule="evenodd" d="M21.3721 74.9476H48.2117V76.1352L40.5672 76.1389L40.5549 75.8235L34.9024 75.8399L34.9066 76.2076L21.3721 76.1888V74.9476Z" fill="white"/>
<path fill-rule="evenodd" clip-rule="evenodd" d="M119.827 74.9476H92.9868V76.1352L100.631 76.1389L100.644 75.8235L106.296 75.8399L106.292 76.2076L119.827 76.1888V74.9476Z" fill="white"/>
<path fill-rule="evenodd" clip-rule="evenodd" d="M21.3604 76.8307H48.2113V77.9313C45.2273 77.9313 42.2437 77.9313 39.2597 77.9313C39.177 77.8462 39.0242 77.7404 38.8183 77.6464C38.476 77.4578 38.083 77.3506 37.6645 77.3506C37.1492 77.3506 36.6716 77.5133 36.2804 77.7902C36.2047 77.833 36.129 77.8795 36.0529 77.9308H21.3604V76.8302V76.8307Z" fill="white"/>
<path fill-rule="evenodd" clip-rule="evenodd" d="M119.838 76.8307H92.9873V77.9313C95.9708 77.9313 98.9549 77.9313 101.939 77.9313C102.022 77.8462 102.174 77.7404 102.38 77.6464C102.723 77.4578 103.116 77.3506 103.534 77.3506C104.049 77.3506 104.527 77.5133 104.918 77.7902C104.993 77.833 105.07 77.8795 105.146 77.9308H119.838V76.8302V76.8307Z" fill="white"/>
<path fill-rule="evenodd" clip-rule="evenodd" d="M35.6647 65.0556V62.214H37.4719V65.0556H35.6647ZM37.889 62.214H39.6962V65.0556H37.889V62.214ZM39.6962 65.4726V68.3903H37.889V65.4726H39.6962ZM39.6962 68.8073V71.6489H37.889V68.8073H39.6962ZM37.4719 71.6489H35.6647V68.8073H37.4719V71.6489ZM35.6647 68.3903V65.4726H37.4719V68.3903H35.6647ZM40.3793 61.655H34.9854V72.2648H40.3793V61.655Z" fill="white"/>
<path fill-rule="evenodd" clip-rule="evenodd" d="M105.535 65.0556V62.214H103.728V65.0556H105.535ZM103.311 62.214H101.503V65.0556H103.311V62.214ZM101.503 65.4726V68.3903H103.311V65.4726H101.503ZM101.503 68.8073V71.6489H103.311V68.8073H101.503ZM103.728 71.6489H105.535V68.8073H103.728V71.6489ZM105.535 68.3903V65.4726H103.728V68.3903H105.535ZM100.82 61.655H106.214V72.2648H100.82V61.655Z" fill="white"/>
<path fill-rule="evenodd" clip-rule="evenodd" d="M55.7082 64.9707V62.1291H57.5154V64.9707H55.7082ZM57.9324 62.1291H59.7397V64.9707H57.9324V62.1291ZM59.7397 65.3877V68.3055H57.9324V65.3877H59.7397ZM59.7397 68.7225V71.564H57.9324V68.7225H59.7397ZM57.5154 71.564H55.7082V68.7225H57.5154V71.564ZM55.7082 68.3055V65.3877H57.5154V68.3055H55.7082ZM60.4228 61.5702H55.0288V72.1799H60.4228V61.5702Z" fill="white"/>
<path fill-rule="evenodd" clip-rule="evenodd" d="M85.4905 64.9707V62.1291H83.6833V64.9707H85.4905ZM83.2662 62.1291H81.459V64.9707H83.2662V62.1291ZM81.459 65.3877V68.3055H83.2662V65.3877H81.459ZM81.459 68.7225V71.564H83.2662V68.7225H81.459ZM83.6833 71.564H85.4905V68.7225H83.6833V71.564ZM85.4905 68.3055V65.3877H83.6833V68.3055H85.4905ZM80.7759 61.5702H86.1699V72.1799H80.7759V61.5702Z" fill="white"/>
<path fill-rule="evenodd" clip-rule="evenodd" d="M21.3604 80.5958L70.5992 79.5911L119.837 80.5958L119.838 81.6339L70.5992 80.3175L21.3604 81.6339V80.5958Z" fill="white"/>
<path fill-rule="evenodd" clip-rule="evenodd" d="M21.3604 78.6686L35.5188 78.678C35.3646 78.9869 35.2748 79.3343 35.2682 79.7015L21.3604 79.6926V78.6681V78.6686ZM39.8107 78.6808L48.2108 78.6864V79.7095L40.0604 79.7043C40.0538 79.3371 39.9649 78.9902 39.8107 78.6808Z" fill="white"/>
<path fill-rule="evenodd" clip-rule="evenodd" d="M119.838 78.6686L105.679 78.678C105.834 78.9869 105.923 79.3343 105.93 79.7015L119.838 79.6926V78.6681V78.6686ZM101.387 78.6808L92.9873 78.6864V79.7095L101.138 79.7043C101.144 79.3371 101.234 78.9902 101.387 78.6808Z" fill="white"/>
<path d="M57.516 78.1748H48.9302V78.9218H57.516V78.1748Z" fill="white"/>
<path d="M92.2682 78.1748H83.5894V78.9218H92.2682V78.1748Z" fill="white"/>
<path d="M61.075 74.7158H48.9302V75.4629H61.075V74.7158Z" fill="white"/>
<path d="M92.2693 74.7158H80.1245V75.4629H92.2693V74.7158Z" fill="white"/>
<path fill-rule="evenodd" clip-rule="evenodd" d="M61.833 74.7158H70.5989H79.3643V75.5155H70.5989H61.833V74.7158Z" fill="white"/>
<path fill-rule="evenodd" clip-rule="evenodd" d="M48.9302 76.3448H70.5997H92.2687V77.1445H70.5997H48.9302V76.3448Z" fill="white"/>
<path fill-rule="evenodd" clip-rule="evenodd" d="M58.2686 77.9745H70.5986H82.9282V78.7747H70.5986H58.2686V77.9745Z" fill="white"/>
<path fill-rule="evenodd" clip-rule="evenodd" d="M50.3083 46.5961L50.8316 45.9995L51.8668 46.0014L52.3525 46.5975L52.4531 72.2026H50.1865L50.3083 46.5961Z" fill="white"/>
<path fill-rule="evenodd" clip-rule="evenodd" d="M90.8909 46.5961L90.3681 45.9995L89.3324 46.0014L88.8472 46.5975L88.7466 72.2026H91.0127L90.8909 46.5961Z" fill="white"/>
<path fill-rule="evenodd" clip-rule="evenodd" d="M62.8307 46.5961L63.354 45.9995L64.3893 46.0014L64.8749 46.5975L64.9756 72.2026H62.709L62.8307 46.5961Z" fill="white"/>
<path fill-rule="evenodd" clip-rule="evenodd" d="M78.367 46.5961L77.8442 45.9995L76.8085 46.0014L76.3233 46.5975L76.2227 72.2026H78.4888L78.367 46.5961Z" fill="white"/>
<path d="M52.9395 73.0711H49.4463V73.7077H52.9395V73.0711Z" fill="white"/>
<path d="M91.7524 73.0711H88.2593V73.7077H91.7524V73.0711Z" fill="white"/>
<path d="M65.5845 73.0659H62.0913V73.7025H65.5845V73.0659Z" fill="white"/>
<path d="M79.1075 73.0659H75.6143V73.7025H79.1075V73.0659Z" fill="white"/>
<path d="M61.0679 60.4346H54.3975V61.0209H61.0679V60.4346Z" fill="white"/>
<path d="M86.8013 60.4346H80.1309V61.0209H86.8013V60.4346Z" fill="white"/>
<path fill-rule="evenodd" clip-rule="evenodd" d="M21.189 42.1233H70.5994H120.009V43.2526H70.5994H21.189V42.1233Z" fill="white"/>
<path fill-rule="evenodd" clip-rule="evenodd" d="M49.731 45.1C49.731 44.9396 49.8621 44.8085 50.0224 44.8085H51.3384H52.6543C52.8146 44.8085 52.9458 44.9396 52.9458 45.1C52.9458 45.2335 52.8551 45.3468 52.7324 45.3811C52.7089 45.3877 52.6844 45.3915 52.659 45.3919C52.5255 45.4277 52.4272 45.5499 52.4272 45.6947C52.4272 45.8451 52.5326 45.9707 52.6736 46.0012H52.7286C52.7629 46.0012 52.7968 45.9993 52.8302 45.9956C53.2787 45.9448 53.6299 45.5616 53.6299 45.1004C53.6299 44.6049 53.2241 44.1992 52.7286 44.1992H51.3384H49.9482C49.4526 44.1992 49.0474 44.6044 49.0474 45.1004C49.0474 45.5616 49.3986 45.9448 49.8466 45.9956C49.88 45.9993 49.9138 46.0012 49.9482 46.0012H50.0032C50.1442 45.9707 50.2495 45.8451 50.2495 45.6947C50.2495 45.5499 50.1513 45.4281 50.0177 45.3919C49.9924 45.3915 49.9674 45.3877 49.9444 45.3811C49.8217 45.3468 49.731 45.2335 49.731 45.1Z" fill="white"/>
<path fill-rule="evenodd" clip-rule="evenodd" d="M91.4682 45.1C91.4682 44.9396 91.3366 44.8085 91.1763 44.8085H89.8603H88.5444C88.3836 44.8085 88.2524 44.9396 88.2524 45.1C88.2524 45.2335 88.3432 45.3468 88.4659 45.3811C88.4894 45.3877 88.5138 45.3915 88.5392 45.3919C88.6728 45.4277 88.771 45.5499 88.771 45.6947C88.771 45.8451 88.6652 45.9707 88.5247 46.0012H88.4697C88.4353 46.0012 88.4015 45.9993 88.3681 45.9956C87.92 45.9448 87.5688 45.5616 87.5688 45.1004C87.5688 44.6049 87.9741 44.1992 88.4697 44.1992H89.8599H91.2506C91.7461 44.1992 92.1513 44.6044 92.1513 45.1004C92.1513 45.5616 91.8002 45.9448 91.3516 45.9956C91.3187 45.9993 91.2844 46.0012 91.2506 46.0012H91.1956C91.0545 45.9707 90.9492 45.8451 90.9492 45.6947C90.9492 45.5499 91.0475 45.4281 91.181 45.3919C91.2064 45.3915 91.2308 45.3877 91.2543 45.3811C91.377 45.3468 91.4678 45.2335 91.4678 45.1H91.4682Z" fill="white"/>
<path fill-rule="evenodd" clip-rule="evenodd" d="M62.231 45.0685C62.231 44.9082 62.3621 44.777 62.5229 44.777H63.8365H65.1501C65.3104 44.777 65.4416 44.9082 65.4416 45.0685C65.4416 45.202 65.3509 45.3153 65.2282 45.3497C65.2046 45.3562 65.1802 45.36 65.1548 45.3605C65.0213 45.3962 64.923 45.5184 64.923 45.6632C64.923 45.8137 65.0283 45.9392 65.1694 45.9698H65.2244C65.2587 45.9698 65.2926 45.9679 65.3259 45.9641C65.7745 45.9134 66.1257 45.5302 66.1257 45.069C66.1257 44.5734 65.7199 44.1677 65.2244 44.1677H63.8365H62.4486C61.9531 44.1677 61.5479 44.573 61.5479 45.069C61.5479 45.5302 61.8991 45.9134 62.3471 45.9641C62.3805 45.9679 62.4143 45.9698 62.4486 45.9698H62.5036C62.6447 45.9392 62.75 45.8137 62.75 45.6632C62.75 45.5184 62.6517 45.3967 62.5182 45.3605C62.4928 45.36 62.4684 45.3562 62.4449 45.3497C62.3222 45.3153 62.2314 45.202 62.2314 45.0685H62.231Z" fill="white"/>
<path fill-rule="evenodd" clip-rule="evenodd" d="M78.9684 45.0685C78.9684 44.9082 78.8373 44.777 78.6769 44.777H77.3634H76.0498C75.8895 44.777 75.7578 44.9082 75.7578 45.0685C75.7578 45.202 75.8486 45.3153 75.9713 45.3497C75.9948 45.3562 76.0192 45.36 76.0446 45.3605C76.1781 45.3962 76.2764 45.5184 76.2764 45.6632C76.2764 45.8137 76.1711 45.9392 76.03 45.9698H75.975C75.9407 45.9698 75.9068 45.9679 75.8739 45.9641C75.4254 45.9134 75.0742 45.5302 75.0742 45.069C75.0742 44.5734 75.4795 44.1677 75.975 44.1677H77.3629H78.7508C79.2463 44.1677 79.652 44.573 79.652 45.069C79.652 45.5302 79.3008 45.9134 78.8523 45.9641C78.8189 45.9679 78.7851 45.9698 78.7508 45.9698H78.6957C78.5547 45.9392 78.4494 45.8137 78.4494 45.6632C78.4494 45.5184 78.5476 45.3967 78.6812 45.3605C78.7065 45.36 78.731 45.3562 78.7545 45.3497C78.8772 45.3153 78.968 45.202 78.968 45.0685H78.9684Z" fill="white"/>
<path fill-rule="evenodd" clip-rule="evenodd" d="M55.9235 49.5395V47.0685H57.4778V49.5395H55.9235ZM57.9903 47.0685H59.5446V49.5395H57.9903V47.0685ZM59.5446 50.0515V52.5226H57.9903V50.0515H59.5446ZM57.4778 52.5226H55.9235V50.0515H57.4778V52.5226ZM60.0326 46.5541H55.4351V53.0374H60.0326V46.5541Z" fill="white"/>
<path fill-rule="evenodd" clip-rule="evenodd" d="M85.2751 49.5395V47.0685H83.7208V49.5395H85.2751ZM83.2088 47.0685H81.6545V49.5395H83.2088V47.0685ZM81.6545 50.0515V52.5226H83.2088V50.0515H81.6545ZM83.7208 52.5226H85.2751V50.0515H83.7208V52.5226ZM81.166 46.5541H85.764V53.0374H81.166V46.5541Z" fill="white"/>
<path fill-rule="evenodd" clip-rule="evenodd" d="M68.7853 49.5413V47.0702H70.3396V49.5413H68.7853ZM70.8516 47.0702H72.4059V49.5413H70.8516V47.0702ZM72.4059 50.0533V52.5244H70.8516V50.0533H72.4059ZM70.3396 52.5244H68.7853V50.0533H70.3396V52.5244ZM72.8944 46.5559H68.2964V53.0392H72.8944V46.5559Z" fill="white"/>
<path fill-rule="evenodd" clip-rule="evenodd" d="M66.7451 59.6931L70.5999 58.1252L74.4541 59.6931L70.5999 59.6959L66.7451 59.6931Z" fill="white"/>
<path fill-rule="evenodd" clip-rule="evenodd" d="M68.5078 63.6776V62.145H70.5995H72.6936V63.6776H70.5995H68.5078ZM70.5995 61.1896H67.5596V73.7072H70.5995H73.648V61.1896H70.5995ZM70.9131 64.6203H72.6936V69.5737H70.9131V64.6203ZM70.9131 70.302H72.6936V72.7674H70.9131V70.302ZM68.5097 69.5699V64.617H70.2902V69.5699H68.5097ZM68.5097 70.3006H70.2902V72.766H68.5097V70.3006Z" fill="white"/>
<path fill-rule="evenodd" clip-rule="evenodd" d="M120.199 35.3073H114.322L112.822 32.4357H76.6118L78.5794 33.3604H112.148L113.181 35.3144L87.5968 35.3073V36.2669H120.199V35.3073Z" fill="white"/>
<path d="M119.507 36.8841H116.495V38.8883H119.507V36.8841Z" fill="white"/>
<path d="M109.463 36.892H108.821V38.8624H109.463V36.892Z" fill="white"/>
<path d="M97.9435 36.892H97.3008V38.8624H97.9435V36.892Z" fill="white"/>
<path d="M108.178 36.892H107.536V38.8624H108.178V36.892Z" fill="white"/>
<path d="M115.859 36.892H115.217V38.8624H115.859V36.892Z" fill="white"/>
<path d="M96.6578 36.892H96.0151V38.8624H96.6578V36.892Z" fill="white"/>
<path d="M106.892 36.892H106.25V38.8624H106.892V36.892Z" fill="white"/>
<path d="M114.573 36.892H113.931V38.8624H114.573V36.892Z" fill="white"/>
<path d="M95.3712 36.892H94.7285V38.8624H95.3712V36.892Z" fill="white"/>
<path d="M105.608 36.892H104.965V38.8624H105.608V36.892Z" fill="white"/>
<path d="M113.289 36.892H112.646V38.8624H113.289V36.892Z" fill="white"/>
<path d="M94.0866 36.892H93.4438V38.8624H94.0866V36.892Z" fill="white"/>
<path d="M104.322 36.892H103.679V38.8624H104.322V36.892Z" fill="white"/>
<path d="M112.003 36.892H111.36V38.8624H112.003V36.892Z" fill="white"/>
<path d="M103.035 36.892H102.393V38.8624H103.035V36.892Z" fill="white"/>
<path d="M110.716 36.892H110.074V38.8624H110.716V36.892Z" fill="white"/>
<path d="M101.75 36.892H101.107V38.8624H101.75V36.892Z" fill="white"/>
<path d="M100.464 36.892H99.8218V38.8624H100.464V36.892Z" fill="white"/>
<path d="M99.1788 36.892H98.5361V38.8624H99.1788V36.892Z" fill="white"/>
<path fill-rule="evenodd" clip-rule="evenodd" d="M74.1124 56.3507V55.2769H67.0645V56.3507H74.1124Z" fill="white"/>
<path fill-rule="evenodd" clip-rule="evenodd" d="M86.9962 56.3532V55.2794H79.9487V56.3532H86.9962Z" fill="white"/>
<path fill-rule="evenodd" clip-rule="evenodd" d="M61.2413 56.3388V55.2654H54.1938V56.3388H61.2413Z" fill="white"/>
<path d="M50.2384 60.4452H42.4956V61.6572H50.2384V60.4452Z" fill="white"/>
<path d="M32.7592 60.4452H24.2388V61.6572H32.7592V60.4452Z" fill="white"/>
<path d="M116.977 60.4452H107.972V61.6572H116.977V60.4452Z" fill="white"/>
<path d="M99.4987 60.4452H90.73V61.6572H99.4987V60.4452Z" fill="white"/>
<path d="M36.0125 92.1642H34.2841C34.2526 91.9406 34.1881 91.7419 34.0908 91.5683C33.9934 91.3921 33.8685 91.2421 33.7159 91.1185C33.5633 90.9948 33.3871 90.9001 33.1871 90.8344C32.9898 90.7686 32.7754 90.7357 32.5439 90.7357C32.1257 90.7357 31.7613 90.8396 31.4509 91.0474C31.1405 91.2526 30.8998 91.5525 30.7288 91.9471C30.5578 92.3391 30.4723 92.8152 30.4723 93.3756C30.4723 93.9517 30.5578 94.4357 30.7288 94.8277C30.9024 95.2197 31.1444 95.5156 31.4549 95.7155C31.7653 95.9155 32.1244 96.0154 32.5321 96.0154C32.761 96.0154 32.9727 95.9852 33.1674 95.9247C33.3647 95.8642 33.5396 95.776 33.6922 95.6603C33.8448 95.5419 33.9711 95.3985 34.071 95.2302C34.1736 95.0618 34.2447 94.8698 34.2841 94.6541L36.0125 94.662C35.9677 95.0329 35.8559 95.3907 35.6771 95.7353C35.5008 96.0773 35.2627 96.3837 34.9628 96.6547C34.6656 96.923 34.3104 97.1361 33.8974 97.2939C33.487 97.4491 33.0227 97.5267 32.5045 97.5267C31.7837 97.5267 31.1392 97.3636 30.571 97.0374C30.0054 96.7112 29.5582 96.239 29.2293 95.6208C28.9031 95.0026 28.74 94.2542 28.74 93.3756C28.74 92.4943 28.9057 91.7446 29.2372 91.1264C29.5687 90.5082 30.0185 90.0373 30.5867 89.7137C31.155 89.3875 31.7942 89.2244 32.5045 89.2244C32.9727 89.2244 33.4068 89.2902 33.8067 89.4217C34.2091 89.5532 34.5656 89.7453 34.876 89.9978C35.1864 90.2477 35.439 90.5542 35.6336 90.9172C35.8309 91.2803 35.9572 91.6959 36.0125 92.1642ZM38.9463 89.3349V97.4163H37.2377V89.3349H38.9463ZM47.1115 89.3349V97.4163H45.6357L42.1199 92.3299H42.0607V97.4163H40.3521V89.3349H41.8515L45.3398 94.4173H45.4108V89.3349H47.1115ZM48.2154 90.7436V89.3349H54.8526V90.7436H52.3784V97.4163H50.6895V90.7436H48.2154ZM60.3296 91.6591C60.298 91.3408 60.1625 91.0935 59.9231 90.9172C59.6838 90.741 59.3589 90.6528 58.9485 90.6528C58.6696 90.6528 58.4342 90.6923 58.2422 90.7712C58.0501 90.8475 57.9028 90.9541 57.8002 91.0908C57.7002 91.2276 57.6503 91.3829 57.6503 91.5565C57.645 91.7012 57.6752 91.8274 57.741 91.9353C57.8094 92.0431 57.9028 92.1365 58.0212 92.2155C58.1396 92.2917 58.2764 92.3588 58.4316 92.4167C58.5868 92.4719 58.7525 92.5193 58.9288 92.5588L59.6548 92.7324C60.0073 92.8113 60.3309 92.9165 60.6255 93.0481C60.9202 93.1796 61.1753 93.3414 61.391 93.5334C61.6068 93.7255 61.7738 93.9517 61.8922 94.2121C62.0132 94.4726 62.075 94.7711 62.0776 95.1079C62.075 95.6024 61.9487 96.0312 61.6988 96.3943C61.4516 96.7547 61.0938 97.0348 60.6255 97.2347C60.1599 97.432 59.5983 97.5307 58.9406 97.5307C58.2882 97.5307 57.72 97.4307 57.2359 97.2308C56.7545 97.0309 56.3783 96.7349 56.1074 96.343C55.839 95.9484 55.6983 95.4604 55.6852 94.879H57.3385C57.3569 95.15 57.4345 95.3762 57.5713 95.5577C57.7108 95.7366 57.8962 95.8721 58.1277 95.9641C58.3618 96.0536 58.6262 96.0983 58.9209 96.0983C59.2102 96.0983 59.4615 96.0562 59.6745 95.972C59.8903 95.8878 60.0573 95.7708 60.1757 95.6208C60.2941 95.4709 60.3533 95.2986 60.3533 95.1039C60.3533 94.9224 60.2993 94.7698 60.1915 94.6462C60.0862 94.5225 59.931 94.4173 59.7258 94.3305C59.5233 94.2437 59.2747 94.1648 58.9801 94.0937L58.1001 93.8728C57.4188 93.707 56.8808 93.4479 56.4862 93.0954C56.0916 92.7429 55.8956 92.2681 55.8982 91.6709C55.8956 91.1816 56.0258 90.7541 56.2889 90.3885C56.5546 90.0228 56.9189 89.7374 57.3819 89.5322C57.8449 89.327 58.3711 89.2244 58.9603 89.2244C59.5601 89.2244 60.0836 89.327 60.5308 89.5322C60.9807 89.7374 61.3305 90.0228 61.5805 90.3885C61.8304 90.7541 61.9593 91.1777 61.9672 91.6591H60.3296ZM65.7987 97.4163V89.3349H71.2442V90.7436H67.5073V92.6692H70.964V94.078H67.5073V96.0075H71.2599V97.4163H65.7987ZM76.9866 91.6591C76.955 91.3408 76.8195 91.0935 76.5801 90.9172C76.3407 90.741 76.0158 90.6528 75.6055 90.6528C75.3266 90.6528 75.0912 90.6923 74.8991 90.7712C74.7071 90.8475 74.5598 90.9541 74.4572 91.0908C74.3572 91.2276 74.3072 91.3829 74.3072 91.5565C74.302 91.7012 74.3322 91.8274 74.398 91.9353C74.4664 92.0431 74.5598 92.1365 74.6782 92.2155C74.7965 92.2917 74.9333 92.3588 75.0885 92.4167C75.2437 92.4719 75.4095 92.5193 75.5857 92.5588L76.3118 92.7324C76.6643 92.8113 76.9879 92.9165 77.2825 93.0481C77.5771 93.1796 77.8323 93.3414 78.048 93.5334C78.2637 93.7255 78.4308 93.9517 78.5492 94.2121C78.6702 94.4726 78.732 94.7711 78.7346 95.1079C78.732 95.6024 78.6057 96.0312 78.3558 96.3943C78.1085 96.7547 77.7508 97.0348 77.2825 97.2347C76.8169 97.432 76.2552 97.5307 75.5976 97.5307C74.9452 97.5307 74.3769 97.4307 73.8929 97.2308C73.4115 97.0309 73.0353 96.7349 72.7644 96.343C72.496 95.9484 72.3553 95.4604 72.3421 94.879H73.9955C74.0139 95.15 74.0915 95.3762 74.2283 95.5577C74.3677 95.7366 74.5532 95.8721 74.7847 95.9641C75.0188 96.0536 75.2832 96.0983 75.5778 96.0983C75.8672 96.0983 76.1184 96.0562 76.3315 95.972C76.5472 95.8878 76.7143 95.7708 76.8327 95.6208C76.951 95.4709 77.0102 95.2986 77.0102 95.1039C77.0102 94.9224 76.9563 94.7698 76.8484 94.6462C76.7432 94.5225 76.588 94.4173 76.3828 94.3305C76.1803 94.2437 75.9317 94.1648 75.637 94.0937L74.7571 93.8728C74.0757 93.707 73.5378 93.4479 73.1432 93.0954C72.7486 92.7429 72.5526 92.2681 72.5552 91.6709C72.5526 91.1816 72.6828 90.7541 72.9459 90.3885C73.2116 90.0228 73.5759 89.7374 74.0389 89.5322C74.5019 89.327 75.028 89.2244 75.6173 89.2244C76.2171 89.2244 76.7406 89.327 77.1878 89.5322C77.6376 89.7374 77.9875 90.0228 78.2374 90.3885C78.4873 90.7541 78.6162 91.1777 78.6241 91.6591H76.9866ZM79.5761 90.7436V89.3349H86.2132V90.7436H83.7391V97.4163H82.0502V90.7436H79.5761ZM87.7117 97.4163H85.8808L88.6706 89.3349H90.8725L93.6583 97.4163H91.8274L89.8031 91.1816H89.74L87.7117 97.4163ZM87.5973 94.2397H91.9221V95.5735H87.5973V94.2397ZM93.3357 90.7436V89.3349H99.9729V90.7436H97.4988V97.4163H95.8099V90.7436H93.3357ZM101.066 97.4163V89.3349H106.511V90.7436H102.775V92.6692H106.231V94.078H102.775V96.0075H106.527V97.4163H101.066Z" fill="#B18B5C"/>
</svg>
