<svg width="147" height="115" viewBox="0 0 147 115" fill="none" xmlns="http://www.w3.org/2000/svg">
<path d="M46.8335 13.7501C46.8335 11.8715 47.5798 10.0698 48.9082 8.74141C50.2365 7.41303 52.0382 6.66675 53.9168 6.66675H79.7502C81.6288 6.66675 83.4305 7.41303 84.7588 8.74141C86.0872 10.0698 86.8335 11.8715 86.8335 13.7501V31.6667H93.0835C94.9621 31.6667 96.7638 32.413 98.0922 33.7414C99.4206 35.0698 100.167 36.8715 100.167 38.7501V71.2501C100.167 72.4001 99.2335 73.3334 98.0835 73.3334H90.1668V62.0834C90.1668 61.0889 89.7717 60.135 89.0685 59.4318C88.3652 58.7285 87.4114 58.3334 86.4168 58.3334H60.5835C59.5889 58.3334 58.6351 58.7285 57.9318 59.4318C57.2286 60.135 56.8335 61.0889 56.8335 62.0834V73.3334H48.9168C47.7668 73.3334 46.8335 72.4001 46.8335 71.2501V13.7501ZM61.0002 73.3334H71.4168V62.5001H61.0002V73.3334ZM75.5835 73.3334H86.0002V62.5001H75.5835V73.3334ZM63.5002 23.3334C63.5002 22.4494 63.149 21.6015 62.5239 20.9764C61.8987 20.3513 61.0509 20.0001 60.1668 20.0001C59.2828 20.0001 58.4349 20.3513 57.8098 20.9764C57.1847 21.6015 56.8335 22.4494 56.8335 23.3334C56.8335 24.2175 57.1847 25.0653 57.8098 25.6904C58.4349 26.3156 59.2828 26.6667 60.1668 26.6667C61.0509 26.6667 61.8987 26.3156 62.5239 25.6904C63.149 25.0653 63.5002 24.2175 63.5002 23.3334ZM60.1668 38.3334C61.0509 38.3334 61.8987 37.9822 62.5239 37.3571C63.149 36.732 63.5002 35.8841 63.5002 35.0001C63.5002 34.116 63.149 33.2682 62.5239 32.6431C61.8987 32.0179 61.0509 31.6667 60.1668 31.6667C59.2828 31.6667 58.4349 32.0179 57.8098 32.6431C57.1847 33.2682 56.8335 34.116 56.8335 35.0001C56.8335 35.8841 57.1847 36.732 57.8098 37.3571C58.4349 37.9822 59.2828 38.3334 60.1668 38.3334ZM63.5002 46.6667C63.5002 45.7827 63.149 44.9348 62.5239 44.3097C61.8987 43.6846 61.0509 43.3334 60.1668 43.3334C59.2828 43.3334 58.4349 43.6846 57.8098 44.3097C57.1847 44.9348 56.8335 45.7827 56.8335 46.6667C56.8335 47.5508 57.1847 48.3987 57.8098 49.0238C58.4349 49.6489 59.2828 50.0001 60.1668 50.0001C61.0509 50.0001 61.8987 49.6489 62.5239 49.0238C63.149 48.3987 63.5002 47.5508 63.5002 46.6667ZM73.5002 26.6667C74.3842 26.6667 75.2321 26.3156 75.8572 25.6904C76.4823 25.0653 76.8335 24.2175 76.8335 23.3334C76.8335 22.4494 76.4823 21.6015 75.8572 20.9764C75.2321 20.3513 74.3842 20.0001 73.5002 20.0001C72.6161 20.0001 71.7683 20.3513 71.1431 20.9764C70.518 21.6015 70.1668 22.4494 70.1668 23.3334C70.1668 24.2175 70.518 25.0653 71.1431 25.6904C71.7683 26.3156 72.6161 26.6667 73.5002 26.6667ZM76.8335 35.0001C76.8335 34.116 76.4823 33.2682 75.8572 32.6431C75.2321 32.0179 74.3842 31.6667 73.5002 31.6667C72.6161 31.6667 71.7683 32.0179 71.1431 32.6431C70.518 33.2682 70.1668 34.116 70.1668 35.0001C70.1668 35.8841 70.518 36.732 71.1431 37.3571C71.7683 37.9822 72.6161 38.3334 73.5002 38.3334C74.3842 38.3334 75.2321 37.9822 75.8572 37.3571C76.4823 36.732 76.8335 35.8841 76.8335 35.0001ZM73.5002 50.0001C74.3842 50.0001 75.2321 49.6489 75.8572 49.0238C76.4823 48.3987 76.8335 47.5508 76.8335 46.6667C76.8335 45.7827 76.4823 44.9348 75.8572 44.3097C75.2321 43.6846 74.3842 43.3334 73.5002 43.3334C72.6161 43.3334 71.7683 43.6846 71.1431 44.3097C70.518 44.9348 70.1668 45.7827 70.1668 46.6667C70.1668 47.5508 70.518 48.3987 71.1431 49.0238C71.7683 49.6489 72.6161 50.0001 73.5002 50.0001ZM90.1668 46.6667C90.1668 45.7827 89.8156 44.9348 89.1905 44.3097C88.5654 43.6846 87.7175 43.3334 86.8335 43.3334C85.9494 43.3334 85.1016 43.6846 84.4765 44.3097C83.8514 44.9348 83.5002 45.7827 83.5002 46.6667C83.5002 47.5508 83.8514 48.3987 84.4765 49.0238C85.1016 49.6489 85.9494 50.0001 86.8335 50.0001C87.7175 50.0001 88.5654 49.6489 89.1905 49.0238C89.8156 48.3987 90.1668 47.5508 90.1668 46.6667Z" fill="#A78F6B"/>
<path d="M18.372 104.77C18.36 105.43 18.462 105.982 18.678 106.426C18.894 106.87 19.188 107.224 19.56 107.488C19.944 107.752 20.394 107.944 20.91 108.064C21.426 108.172 21.978 108.226 22.566 108.226C22.902 108.226 23.268 108.178 23.664 108.082C24.06 107.986 24.426 107.836 24.762 107.632C25.11 107.416 25.398 107.146 25.626 106.822C25.854 106.486 25.968 106.084 25.968 105.616C25.968 105.256 25.884 104.944 25.716 104.68C25.56 104.416 25.35 104.194 25.086 104.014C24.834 103.834 24.552 103.69 24.24 103.582C23.928 103.462 23.622 103.366 23.322 103.294L20.46 102.592C20.088 102.496 19.722 102.376 19.362 102.232C19.014 102.088 18.708 101.896 18.444 101.656C18.18 101.416 17.964 101.122 17.796 100.774C17.64 100.426 17.562 100 17.562 99.496C17.562 99.184 17.622 98.818 17.742 98.398C17.862 97.978 18.084 97.582 18.408 97.21C18.744 96.838 19.2 96.526 19.776 96.274C20.352 96.01 21.09 95.878 21.99 95.878C22.626 95.878 23.232 95.962 23.808 96.13C24.384 96.298 24.888 96.55 25.32 96.886C25.752 97.222 26.094 97.642 26.346 98.146C26.61 98.638 26.742 99.214 26.742 99.874H25.518C25.494 99.382 25.38 98.956 25.176 98.596C24.984 98.224 24.726 97.918 24.402 97.678C24.09 97.426 23.724 97.24 23.304 97.12C22.896 96.988 22.464 96.922 22.008 96.922C21.588 96.922 21.18 96.97 20.784 97.066C20.4 97.15 20.058 97.294 19.758 97.498C19.47 97.69 19.236 97.948 19.056 98.272C18.876 98.596 18.786 98.998 18.786 99.478C18.786 99.778 18.834 100.042 18.93 100.27C19.038 100.486 19.182 100.672 19.362 100.828C19.542 100.984 19.746 101.11 19.974 101.206C20.214 101.302 20.466 101.38 20.73 101.44L23.862 102.214C24.318 102.334 24.744 102.484 25.14 102.664C25.548 102.832 25.902 103.048 26.202 103.312C26.514 103.564 26.754 103.876 26.922 104.248C27.102 104.62 27.192 105.07 27.192 105.598C27.192 105.742 27.174 105.934 27.138 106.174C27.114 106.414 27.042 106.672 26.922 106.948C26.814 107.212 26.652 107.482 26.436 107.758C26.232 108.034 25.944 108.286 25.572 108.514C25.212 108.73 24.762 108.904 24.222 109.036C23.682 109.18 23.034 109.252 22.278 109.252C21.522 109.252 20.82 109.168 20.172 109C19.524 108.82 18.972 108.55 18.516 108.19C18.06 107.83 17.706 107.368 17.454 106.804C17.214 106.24 17.112 105.562 17.148 104.77H18.372ZM35.5959 103.708C35.5839 103.276 35.5059 102.862 35.3619 102.466C35.2299 102.07 35.0379 101.722 34.7859 101.422C34.5339 101.11 34.2279 100.864 33.8679 100.684C33.5079 100.492 33.0999 100.396 32.6439 100.396C32.1759 100.396 31.7619 100.492 31.4019 100.684C31.0419 100.864 30.7359 101.11 30.4839 101.422C30.2319 101.722 30.0279 102.076 29.8719 102.484C29.7279 102.88 29.6319 103.288 29.5839 103.708H35.5959ZM29.5839 104.662C29.5839 105.07 29.6379 105.496 29.7459 105.94C29.8659 106.372 30.0519 106.762 30.3039 107.11C30.5559 107.458 30.8739 107.746 31.2579 107.974C31.6419 108.202 32.1039 108.316 32.6439 108.316C33.4719 108.316 34.1199 108.1 34.5879 107.668C35.0559 107.236 35.3799 106.66 35.5599 105.94H36.6939C36.4539 106.996 36.0099 107.812 35.3619 108.388C34.7259 108.964 33.8199 109.252 32.6439 109.252C31.9119 109.252 31.2759 109.126 30.7359 108.874C30.2079 108.61 29.7759 108.256 29.4399 107.812C29.1039 107.356 28.8519 106.834 28.6839 106.246C28.5279 105.646 28.4499 105.016 28.4499 104.356C28.4499 103.744 28.5279 103.144 28.6839 102.556C28.8519 101.968 29.1039 101.446 29.4399 100.99C29.7759 100.522 30.2079 100.15 30.7359 99.874C31.2759 99.586 31.9119 99.442 32.6439 99.442C33.3879 99.442 34.0239 99.592 34.5519 99.892C35.0799 100.192 35.5059 100.588 35.8299 101.08C36.1659 101.56 36.4059 102.118 36.5499 102.754C36.6939 103.378 36.7539 104.014 36.7299 104.662H29.5839ZM38.2699 96.148H39.4039V109H38.2699V96.148ZM41.5921 96.148H42.7261V109H41.5921V96.148ZM51.9402 103.96H56.9982L54.5142 97.372L51.9402 103.96ZM53.8842 96.148H55.2522L60.2922 109H58.9782L57.4122 105.004H51.5622L50.0142 109H48.7182L53.8842 96.148ZM61.2441 99.712H62.2881V101.476H62.3241C62.5881 100.828 63.0141 100.33 63.6021 99.982C64.2021 99.622 64.8801 99.442 65.6361 99.442C66.3441 99.442 66.9561 99.574 67.4721 99.838C68.0001 100.102 68.4381 100.462 68.7861 100.918C69.1341 101.362 69.3921 101.884 69.5601 102.484C69.7281 103.072 69.8121 103.696 69.8121 104.356C69.8121 105.016 69.7281 105.646 69.5601 106.246C69.3921 106.834 69.1341 107.356 68.7861 107.812C68.4381 108.256 68.0001 108.61 67.4721 108.874C66.9561 109.126 66.3441 109.252 65.6361 109.252C65.3001 109.252 64.9641 109.21 64.6281 109.126C64.2921 109.042 63.9801 108.916 63.6921 108.748C63.4041 108.58 63.1461 108.37 62.9181 108.118C62.7021 107.866 62.5341 107.572 62.4141 107.236H62.3781V112.42H61.2441V99.712ZM68.6781 104.356C68.6781 103.876 68.6181 103.402 68.4981 102.934C68.3901 102.454 68.2101 102.028 67.9581 101.656C67.7181 101.284 67.4061 100.984 67.0221 100.756C66.6381 100.516 66.1761 100.396 65.6361 100.396C65.0121 100.396 64.4901 100.504 64.0701 100.72C63.6501 100.936 63.3141 101.224 63.0621 101.584C62.8101 101.944 62.6301 102.364 62.5221 102.844C62.4261 103.324 62.3781 103.828 62.3781 104.356C62.3781 104.836 62.4321 105.316 62.5401 105.796C62.6601 106.264 62.8461 106.684 63.0981 107.056C63.3621 107.428 63.6981 107.734 64.1061 107.974C64.5261 108.202 65.0361 108.316 65.6361 108.316C66.1761 108.316 66.6381 108.202 67.0221 107.974C67.4061 107.734 67.7181 107.428 67.9581 107.056C68.2101 106.684 68.3901 106.264 68.4981 105.796C68.6181 105.316 68.6781 104.836 68.6781 104.356ZM71.472 102.556C71.508 102.016 71.622 101.548 71.814 101.152C72.006 100.756 72.264 100.432 72.588 100.18C72.924 99.928 73.314 99.742 73.758 99.622C74.202 99.502 74.694 99.442 75.234 99.442C75.642 99.442 76.05 99.484 76.458 99.568C76.866 99.64 77.232 99.784 77.556 100C77.88 100.216 78.144 100.522 78.348 100.918C78.552 101.302 78.654 101.806 78.654 102.43V107.362C78.654 107.818 78.876 108.046 79.32 108.046C79.452 108.046 79.572 108.022 79.68 107.974V108.928C79.548 108.952 79.428 108.97 79.32 108.982C79.224 108.994 79.098 109 78.942 109C78.654 109 78.42 108.964 78.24 108.892C78.072 108.808 77.94 108.694 77.844 108.55C77.748 108.406 77.682 108.238 77.646 108.046C77.622 107.842 77.61 107.62 77.61 107.38H77.574C77.37 107.68 77.16 107.95 76.944 108.19C76.74 108.418 76.506 108.61 76.242 108.766C75.99 108.922 75.696 109.042 75.36 109.126C75.036 109.21 74.646 109.252 74.19 109.252C73.758 109.252 73.35 109.198 72.966 109.09C72.594 108.994 72.264 108.838 71.976 108.622C71.7 108.394 71.478 108.112 71.31 107.776C71.154 107.428 71.076 107.02 71.076 106.552C71.076 105.904 71.22 105.4 71.508 105.04C71.796 104.668 72.174 104.386 72.642 104.194C73.122 104.002 73.656 103.87 74.244 103.798C74.844 103.714 75.45 103.636 76.062 103.564C76.302 103.54 76.512 103.51 76.692 103.474C76.872 103.438 77.022 103.378 77.142 103.294C77.262 103.198 77.352 103.072 77.412 102.916C77.484 102.76 77.52 102.556 77.52 102.304C77.52 101.92 77.454 101.608 77.322 101.368C77.202 101.116 77.028 100.918 76.8 100.774C76.584 100.63 76.326 100.534 76.026 100.486C75.738 100.426 75.426 100.396 75.09 100.396C74.37 100.396 73.782 100.57 73.326 100.918C72.87 101.254 72.63 101.8 72.606 102.556H71.472ZM77.52 103.924H77.484C77.412 104.056 77.274 104.152 77.07 104.212C76.866 104.272 76.686 104.314 76.53 104.338C76.05 104.422 75.552 104.5 75.036 104.572C74.532 104.632 74.07 104.728 73.65 104.86C73.23 104.992 72.882 105.184 72.606 105.436C72.342 105.676 72.21 106.024 72.21 106.48C72.21 106.768 72.264 107.026 72.372 107.254C72.492 107.47 72.648 107.662 72.84 107.83C73.032 107.986 73.254 108.106 73.506 108.19C73.758 108.274 74.016 108.316 74.28 108.316C74.712 108.316 75.126 108.25 75.522 108.118C75.918 107.986 76.26 107.794 76.548 107.542C76.848 107.29 77.082 106.984 77.25 106.624C77.43 106.264 77.52 105.856 77.52 105.4V103.924ZM80.914 99.712H81.958V101.89H81.994C82.282 101.134 82.726 100.552 83.326 100.144C83.938 99.736 84.664 99.55 85.504 99.586V100.72C84.988 100.696 84.52 100.768 84.1 100.936C83.68 101.092 83.314 101.32 83.002 101.62C82.702 101.92 82.468 102.28 82.3 102.7C82.132 103.108 82.048 103.558 82.048 104.05V109H80.914V99.712ZM88.3917 99.712H90.2817V100.666H88.3917V106.93C88.3917 107.302 88.4397 107.596 88.5357 107.812C88.6437 108.016 88.9017 108.13 89.3097 108.154C89.6337 108.154 89.9577 108.136 90.2817 108.1V109.054C90.1137 109.054 89.9457 109.06 89.7777 109.072C89.6097 109.084 89.4417 109.09 89.2737 109.09C88.5177 109.09 87.9897 108.946 87.6897 108.658C87.3897 108.358 87.2457 107.812 87.2577 107.02V100.666H85.6377V99.712H87.2577V96.922H88.3917V99.712ZM91.9179 99.712H92.9619V101.278H93.0159C93.3159 100.702 93.7059 100.252 94.1859 99.928C94.6779 99.604 95.3019 99.442 96.0579 99.442C96.6699 99.442 97.2219 99.592 97.7139 99.892C98.2179 100.192 98.5539 100.648 98.7219 101.26C98.9979 100.648 99.4059 100.192 99.9459 99.892C100.486 99.592 101.062 99.442 101.674 99.442C103.726 99.442 104.752 100.528 104.752 102.7V109H103.618V102.754C103.618 101.986 103.456 101.404 103.132 101.008C102.808 100.6 102.238 100.396 101.422 100.396C100.93 100.396 100.522 100.492 100.198 100.684C99.8739 100.864 99.6159 101.11 99.4239 101.422C99.2319 101.734 99.0939 102.094 99.0099 102.502C98.9379 102.898 98.9019 103.312 98.9019 103.744V109H97.7679V102.7C97.7679 102.388 97.7319 102.094 97.6599 101.818C97.5999 101.53 97.4919 101.284 97.3359 101.08C97.1919 100.864 96.9939 100.696 96.7419 100.576C96.4899 100.456 96.1839 100.396 95.8239 100.396C95.3439 100.396 94.9239 100.486 94.5639 100.666C94.2159 100.834 93.9279 101.074 93.6999 101.386C93.4839 101.686 93.3219 102.046 93.2139 102.466C93.1059 102.874 93.0519 103.324 93.0519 103.816V109H91.9179V99.712ZM113.59 103.708C113.578 103.276 113.5 102.862 113.356 102.466C113.224 102.07 113.032 101.722 112.78 101.422C112.528 101.11 112.222 100.864 111.862 100.684C111.502 100.492 111.094 100.396 110.638 100.396C110.17 100.396 109.756 100.492 109.396 100.684C109.036 100.864 108.73 101.11 108.478 101.422C108.226 101.722 108.022 102.076 107.866 102.484C107.722 102.88 107.626 103.288 107.578 103.708H113.59ZM107.578 104.662C107.578 105.07 107.632 105.496 107.74 105.94C107.86 106.372 108.046 106.762 108.298 107.11C108.55 107.458 108.868 107.746 109.252 107.974C109.636 108.202 110.098 108.316 110.638 108.316C111.466 108.316 112.114 108.1 112.582 107.668C113.05 107.236 113.374 106.66 113.554 105.94H114.688C114.448 106.996 114.004 107.812 113.356 108.388C112.72 108.964 111.814 109.252 110.638 109.252C109.906 109.252 109.27 109.126 108.73 108.874C108.202 108.61 107.77 108.256 107.434 107.812C107.098 107.356 106.846 106.834 106.678 106.246C106.522 105.646 106.444 105.016 106.444 104.356C106.444 103.744 106.522 103.144 106.678 102.556C106.846 101.968 107.098 101.446 107.434 100.99C107.77 100.522 108.202 100.15 108.73 99.874C109.27 99.586 109.906 99.442 110.638 99.442C111.382 99.442 112.018 99.592 112.546 99.892C113.074 100.192 113.5 100.588 113.824 101.08C114.16 101.56 114.4 102.118 114.544 102.754C114.688 103.378 114.748 104.014 114.724 104.662H107.578ZM116.228 99.712H117.362V101.314H117.398C117.614 100.75 117.998 100.3 118.55 99.964C119.102 99.616 119.708 99.442 120.368 99.442C121.016 99.442 121.556 99.526 121.988 99.694C122.432 99.862 122.786 100.102 123.05 100.414C123.314 100.714 123.5 101.086 123.608 101.53C123.716 101.974 123.77 102.472 123.77 103.024V109H122.636V103.204C122.636 102.808 122.6 102.442 122.528 102.106C122.456 101.758 122.33 101.458 122.15 101.206C121.97 100.954 121.724 100.756 121.412 100.612C121.112 100.468 120.734 100.396 120.278 100.396C119.822 100.396 119.414 100.48 119.054 100.648C118.706 100.804 118.406 101.026 118.154 101.314C117.914 101.59 117.722 101.926 117.578 102.322C117.446 102.706 117.374 103.126 117.362 103.582V109H116.228V99.712ZM127.714 99.712H129.604V100.666H127.714V106.93C127.714 107.302 127.762 107.596 127.858 107.812C127.966 108.016 128.224 108.13 128.632 108.154C128.956 108.154 129.28 108.136 129.604 108.1V109.054C129.436 109.054 129.268 109.06 129.1 109.072C128.932 109.084 128.764 109.09 128.596 109.09C127.84 109.09 127.312 108.946 127.012 108.658C126.712 108.358 126.568 107.812 126.58 107.02V100.666H124.96V99.712H126.58V96.922H127.714V99.712Z" fill="white"/>
</svg>
