<svg width="146" height="115" viewBox="0 0 146 115" fill="none" xmlns="http://www.w3.org/2000/svg">
<path d="M46.8335 13.7501C46.8335 11.8715 47.5798 10.0698 48.9082 8.74141C50.2365 7.41303 52.0382 6.66675 53.9168 6.66675H79.7502C81.6288 6.66675 83.4305 7.41303 84.7588 8.74141C86.0872 10.0698 86.8335 11.8715 86.8335 13.7501V31.6667H93.0835C94.9621 31.6667 96.7638 32.413 98.0922 33.7414C99.4206 35.0698 100.167 36.8715 100.167 38.7501V71.2501C100.167 72.4001 99.2335 73.3334 98.0835 73.3334H90.1668V62.0834C90.1668 61.0889 89.7717 60.135 89.0685 59.4318C88.3652 58.7285 87.4114 58.3334 86.4168 58.3334H60.5835C59.5889 58.3334 58.6351 58.7285 57.9318 59.4318C57.2286 60.135 56.8335 61.0889 56.8335 62.0834V73.3334H48.9168C47.7668 73.3334 46.8335 72.4001 46.8335 71.2501V13.7501ZM61.0002 73.3334H71.4168V62.5001H61.0002V73.3334ZM75.5835 73.3334H86.0002V62.5001H75.5835V73.3334ZM63.5002 23.3334C63.5002 22.4494 63.149 21.6015 62.5239 20.9764C61.8987 20.3513 61.0509 20.0001 60.1668 20.0001C59.2828 20.0001 58.4349 20.3513 57.8098 20.9764C57.1847 21.6015 56.8335 22.4494 56.8335 23.3334C56.8335 24.2175 57.1847 25.0653 57.8098 25.6904C58.4349 26.3156 59.2828 26.6667 60.1668 26.6667C61.0509 26.6667 61.8987 26.3156 62.5239 25.6904C63.149 25.0653 63.5002 24.2175 63.5002 23.3334ZM60.1668 38.3334C61.0509 38.3334 61.8987 37.9822 62.5239 37.3571C63.149 36.732 63.5002 35.8841 63.5002 35.0001C63.5002 34.116 63.149 33.2682 62.5239 32.6431C61.8987 32.0179 61.0509 31.6667 60.1668 31.6667C59.2828 31.6667 58.4349 32.0179 57.8098 32.6431C57.1847 33.2682 56.8335 34.116 56.8335 35.0001C56.8335 35.8841 57.1847 36.732 57.8098 37.3571C58.4349 37.9822 59.2828 38.3334 60.1668 38.3334ZM63.5002 46.6667C63.5002 45.7827 63.149 44.9348 62.5239 44.3097C61.8987 43.6846 61.0509 43.3334 60.1668 43.3334C59.2828 43.3334 58.4349 43.6846 57.8098 44.3097C57.1847 44.9348 56.8335 45.7827 56.8335 46.6667C56.8335 47.5508 57.1847 48.3987 57.8098 49.0238C58.4349 49.6489 59.2828 50.0001 60.1668 50.0001C61.0509 50.0001 61.8987 49.6489 62.5239 49.0238C63.149 48.3987 63.5002 47.5508 63.5002 46.6667ZM73.5002 26.6667C74.3842 26.6667 75.2321 26.3156 75.8572 25.6904C76.4823 25.0653 76.8335 24.2175 76.8335 23.3334C76.8335 22.4494 76.4823 21.6015 75.8572 20.9764C75.2321 20.3513 74.3842 20.0001 73.5002 20.0001C72.6161 20.0001 71.7683 20.3513 71.1431 20.9764C70.518 21.6015 70.1668 22.4494 70.1668 23.3334C70.1668 24.2175 70.518 25.0653 71.1431 25.6904C71.7683 26.3156 72.6161 26.6667 73.5002 26.6667ZM76.8335 35.0001C76.8335 34.116 76.4823 33.2682 75.8572 32.6431C75.2321 32.0179 74.3842 31.6667 73.5002 31.6667C72.6161 31.6667 71.7683 32.0179 71.1431 32.6431C70.518 33.2682 70.1668 34.116 70.1668 35.0001C70.1668 35.8841 70.518 36.732 71.1431 37.3571C71.7683 37.9822 72.6161 38.3334 73.5002 38.3334C74.3842 38.3334 75.2321 37.9822 75.8572 37.3571C76.4823 36.732 76.8335 35.8841 76.8335 35.0001ZM73.5002 50.0001C74.3842 50.0001 75.2321 49.6489 75.8572 49.0238C76.4823 48.3987 76.8335 47.5508 76.8335 46.6667C76.8335 45.7827 76.4823 44.9348 75.8572 44.3097C75.2321 43.6846 74.3842 43.3334 73.5002 43.3334C72.6161 43.3334 71.7683 43.6846 71.1431 44.3097C70.518 44.9348 70.1668 45.7827 70.1668 46.6667C70.1668 47.5508 70.518 48.3987 71.1431 49.0238C71.7683 49.6489 72.6161 50.0001 73.5002 50.0001ZM90.1668 46.6667C90.1668 45.7827 89.8156 44.9348 89.1905 44.3097C88.5654 43.6846 87.7175 43.3334 86.8335 43.3334C85.9494 43.3334 85.1016 43.6846 84.4765 44.3097C83.8514 44.9348 83.5002 45.7827 83.5002 46.6667C83.5002 47.5508 83.8514 48.3987 84.4765 49.0238C85.1016 49.6489 85.9494 50.0001 86.8335 50.0001C87.7175 50.0001 88.5654 49.6489 89.1905 49.0238C89.8156 48.3987 90.1668 47.5508 90.1668 46.6667Z" fill="#A78F6B"/>
<path d="M1.872 104.77C1.86 105.43 1.962 105.982 2.178 106.426C2.394 106.87 2.688 107.224 3.06 107.488C3.444 107.752 3.894 107.944 4.41 108.064C4.926 108.172 5.478 108.226 6.066 108.226C6.402 108.226 6.768 108.178 7.164 108.082C7.56 107.986 7.926 107.836 8.262 107.632C8.61 107.416 8.898 107.146 9.126 106.822C9.354 106.486 9.468 106.084 9.468 105.616C9.468 105.256 9.384 104.944 9.216 104.68C9.06 104.416 8.85 104.194 8.586 104.014C8.334 103.834 8.052 103.69 7.74 103.582C7.428 103.462 7.122 103.366 6.822 103.294L3.96 102.592C3.588 102.496 3.222 102.376 2.862 102.232C2.514 102.088 2.208 101.896 1.944 101.656C1.68 101.416 1.464 101.122 1.296 100.774C1.14 100.426 1.062 100 1.062 99.496C1.062 99.184 1.122 98.818 1.242 98.398C1.362 97.978 1.584 97.582 1.908 97.21C2.244 96.838 2.7 96.526 3.276 96.274C3.852 96.01 4.59 95.878 5.49 95.878C6.126 95.878 6.732 95.962 7.308 96.13C7.884 96.298 8.388 96.55 8.82 96.886C9.252 97.222 9.594 97.642 9.846 98.146C10.11 98.638 10.242 99.214 10.242 99.874H9.018C8.994 99.382 8.88 98.956 8.676 98.596C8.484 98.224 8.226 97.918 7.902 97.678C7.59 97.426 7.224 97.24 6.804 97.12C6.396 96.988 5.964 96.922 5.508 96.922C5.088 96.922 4.68 96.97 4.284 97.066C3.9 97.15 3.558 97.294 3.258 97.498C2.97 97.69 2.736 97.948 2.556 98.272C2.376 98.596 2.286 98.998 2.286 99.478C2.286 99.778 2.334 100.042 2.43 100.27C2.538 100.486 2.682 100.672 2.862 100.828C3.042 100.984 3.246 101.11 3.474 101.206C3.714 101.302 3.966 101.38 4.23 101.44L7.362 102.214C7.818 102.334 8.244 102.484 8.64 102.664C9.048 102.832 9.402 103.048 9.702 103.312C10.014 103.564 10.254 103.876 10.422 104.248C10.602 104.62 10.692 105.07 10.692 105.598C10.692 105.742 10.674 105.934 10.638 106.174C10.614 106.414 10.542 106.672 10.422 106.948C10.314 107.212 10.152 107.482 9.936 107.758C9.732 108.034 9.444 108.286 9.072 108.514C8.712 108.73 8.262 108.904 7.722 109.036C7.182 109.18 6.534 109.252 5.778 109.252C5.022 109.252 4.32 109.168 3.672 109C3.024 108.82 2.472 108.55 2.016 108.19C1.56 107.83 1.206 107.368 0.954 106.804C0.714 106.24 0.612 105.562 0.648 104.77H1.872ZM12.3999 96.148H13.5339V101.314H13.5699C13.7859 100.75 14.1699 100.3 14.7219 99.964C15.2739 99.616 15.8799 99.442 16.5399 99.442C17.1879 99.442 17.7279 99.526 18.1599 99.694C18.6039 99.862 18.9579 100.102 19.2219 100.414C19.4859 100.714 19.6719 101.086 19.7799 101.53C19.8879 101.974 19.9419 102.472 19.9419 103.024V109H18.8079V103.204C18.8079 102.808 18.7719 102.442 18.6999 102.106C18.6279 101.758 18.5019 101.458 18.3219 101.206C18.1419 100.954 17.8959 100.756 17.5839 100.612C17.2839 100.468 16.9059 100.396 16.4499 100.396C15.9939 100.396 15.5859 100.48 15.2259 100.648C14.8779 100.804 14.5779 101.026 14.3259 101.314C14.0859 101.59 13.8939 101.926 13.7499 102.322C13.6179 102.706 13.5459 103.126 13.5339 103.582V109H12.3999V96.148ZM26.0099 100.396C25.4699 100.396 24.9959 100.51 24.5879 100.738C24.1799 100.966 23.8379 101.266 23.5619 101.638C23.2979 102.01 23.0939 102.436 22.9499 102.916C22.8179 103.384 22.7519 103.864 22.7519 104.356C22.7519 104.848 22.8179 105.334 22.9499 105.814C23.0939 106.282 23.2979 106.702 23.5619 107.074C23.8379 107.446 24.1799 107.746 24.5879 107.974C24.9959 108.202 25.4699 108.316 26.0099 108.316C26.5499 108.316 27.0239 108.202 27.4319 107.974C27.8399 107.746 28.1759 107.446 28.4399 107.074C28.7159 106.702 28.9199 106.282 29.0519 105.814C29.1959 105.334 29.2679 104.848 29.2679 104.356C29.2679 103.864 29.1959 103.384 29.0519 102.916C28.9199 102.436 28.7159 102.01 28.4399 101.638C28.1759 101.266 27.8399 100.966 27.4319 100.738C27.0239 100.51 26.5499 100.396 26.0099 100.396ZM26.0099 99.442C26.7179 99.442 27.3419 99.574 27.8819 99.838C28.4339 100.102 28.8959 100.456 29.2679 100.9C29.6399 101.344 29.9219 101.866 30.1139 102.466C30.3059 103.054 30.4019 103.684 30.4019 104.356C30.4019 105.028 30.3059 105.664 30.1139 106.264C29.9219 106.852 29.6399 107.368 29.2679 107.812C28.8959 108.256 28.4339 108.61 27.8819 108.874C27.3419 109.126 26.7179 109.252 26.0099 109.252C25.3019 109.252 24.6719 109.126 24.1199 108.874C23.5799 108.61 23.1239 108.256 22.7519 107.812C22.3799 107.368 22.0979 106.852 21.9059 106.264C21.7139 105.664 21.6179 105.028 21.6179 104.356C21.6179 103.684 21.7139 103.054 21.9059 102.466C22.0979 101.866 22.3799 101.344 22.7519 100.9C23.1239 100.456 23.5799 100.102 24.1199 99.838C24.6719 99.574 25.3019 99.442 26.0099 99.442ZM32.0878 99.712H33.1318V101.89H33.1678C33.4558 101.134 33.8998 100.552 34.4998 100.144C35.1118 99.736 35.8378 99.55 36.6778 99.586V100.72C36.1618 100.696 35.6938 100.768 35.2738 100.936C34.8538 101.092 34.4878 101.32 34.1758 101.62C33.8758 101.92 33.6418 102.28 33.4738 102.7C33.3058 103.108 33.2218 103.558 33.2218 104.05V109H32.0878V99.712ZM39.5655 99.712H41.4555V100.666H39.5655V106.93C39.5655 107.302 39.6135 107.596 39.7095 107.812C39.8175 108.016 40.0755 108.13 40.4835 108.154C40.8075 108.154 41.1315 108.136 41.4555 108.1V109.054C41.2875 109.054 41.1195 109.06 40.9515 109.072C40.7835 109.084 40.6155 109.09 40.4475 109.09C39.6915 109.09 39.1635 108.946 38.8635 108.658C38.5635 108.358 38.4195 107.812 38.4315 107.02V100.666H36.8115V99.712H38.4315V96.922H39.5655V99.712ZM43.1097 96.148H44.2437V109H43.1097V96.148ZM53.092 103.708C53.08 103.276 53.002 102.862 52.858 102.466C52.726 102.07 52.534 101.722 52.282 101.422C52.03 101.11 51.724 100.864 51.364 100.684C51.004 100.492 50.596 100.396 50.14 100.396C49.672 100.396 49.258 100.492 48.898 100.684C48.538 100.864 48.232 101.11 47.98 101.422C47.728 101.722 47.524 102.076 47.368 102.484C47.224 102.88 47.128 103.288 47.08 103.708H53.092ZM47.08 104.662C47.08 105.07 47.134 105.496 47.242 105.94C47.362 106.372 47.548 106.762 47.8 107.11C48.052 107.458 48.37 107.746 48.754 107.974C49.138 108.202 49.6 108.316 50.14 108.316C50.968 108.316 51.616 108.1 52.084 107.668C52.552 107.236 52.876 106.66 53.056 105.94H54.19C53.95 106.996 53.506 107.812 52.858 108.388C52.222 108.964 51.316 109.252 50.14 109.252C49.408 109.252 48.772 109.126 48.232 108.874C47.704 108.61 47.272 108.256 46.936 107.812C46.6 107.356 46.348 106.834 46.18 106.246C46.024 105.646 45.946 105.016 45.946 104.356C45.946 103.744 46.024 103.144 46.18 102.556C46.348 101.968 46.6 101.446 46.936 100.99C47.272 100.522 47.704 100.15 48.232 99.874C48.772 99.586 49.408 99.442 50.14 99.442C50.884 99.442 51.52 99.592 52.048 99.892C52.576 100.192 53.002 100.588 53.326 101.08C53.662 101.56 53.902 102.118 54.046 102.754C54.19 103.378 54.25 104.014 54.226 104.662H47.08ZM57.548 99.712H59.438V100.666H57.548V106.93C57.548 107.302 57.596 107.596 57.692 107.812C57.8 108.016 58.058 108.13 58.466 108.154C58.79 108.154 59.114 108.136 59.438 108.1V109.054C59.27 109.054 59.102 109.06 58.934 109.072C58.766 109.084 58.598 109.09 58.43 109.09C57.674 109.09 57.146 108.946 56.846 108.658C56.546 108.358 56.402 107.812 56.414 107.02V100.666H54.794V99.712H56.414V96.922H57.548V99.712ZM68.1179 103.96H73.1759L70.6919 97.372L68.1179 103.96ZM70.0619 96.148H71.4299L76.4699 109H75.1559L73.5899 105.004H67.7399L66.1919 109H64.8959L70.0619 96.148ZM77.4218 99.712H78.4658V101.476H78.5018C78.7658 100.828 79.1918 100.33 79.7798 99.982C80.3798 99.622 81.0578 99.442 81.8138 99.442C82.5218 99.442 83.1338 99.574 83.6498 99.838C84.1778 100.102 84.6158 100.462 84.9638 100.918C85.3118 101.362 85.5698 101.884 85.7378 102.484C85.9058 103.072 85.9898 103.696 85.9898 104.356C85.9898 105.016 85.9058 105.646 85.7378 106.246C85.5698 106.834 85.3118 107.356 84.9638 107.812C84.6158 108.256 84.1778 108.61 83.6498 108.874C83.1338 109.126 82.5218 109.252 81.8138 109.252C81.4778 109.252 81.1418 109.21 80.8058 109.126C80.4698 109.042 80.1578 108.916 79.8698 108.748C79.5818 108.58 79.3238 108.37 79.0958 108.118C78.8798 107.866 78.7118 107.572 78.5918 107.236H78.5558V112.42H77.4218V99.712ZM84.8558 104.356C84.8558 103.876 84.7958 103.402 84.6758 102.934C84.5678 102.454 84.3878 102.028 84.1358 101.656C83.8958 101.284 83.5838 100.984 83.1998 100.756C82.8158 100.516 82.3538 100.396 81.8138 100.396C81.1898 100.396 80.6678 100.504 80.2478 100.72C79.8278 100.936 79.4918 101.224 79.2398 101.584C78.9878 101.944 78.8078 102.364 78.6998 102.844C78.6038 103.324 78.5558 103.828 78.5558 104.356C78.5558 104.836 78.6098 105.316 78.7178 105.796C78.8378 106.264 79.0238 106.684 79.2758 107.056C79.5398 107.428 79.8758 107.734 80.2838 107.974C80.7038 108.202 81.2138 108.316 81.8138 108.316C82.3538 108.316 82.8158 108.202 83.1998 107.974C83.5838 107.734 83.8958 107.428 84.1358 107.056C84.3878 106.684 84.5678 106.264 84.6758 105.796C84.7958 105.316 84.8558 104.836 84.8558 104.356ZM87.6497 102.556C87.6857 102.016 87.7997 101.548 87.9917 101.152C88.1837 100.756 88.4417 100.432 88.7657 100.18C89.1017 99.928 89.4917 99.742 89.9357 99.622C90.3797 99.502 90.8717 99.442 91.4117 99.442C91.8197 99.442 92.2277 99.484 92.6357 99.568C93.0437 99.64 93.4097 99.784 93.7337 100C94.0577 100.216 94.3217 100.522 94.5257 100.918C94.7297 101.302 94.8317 101.806 94.8317 102.43V107.362C94.8317 107.818 95.0537 108.046 95.4977 108.046C95.6297 108.046 95.7497 108.022 95.8577 107.974V108.928C95.7257 108.952 95.6057 108.97 95.4977 108.982C95.4017 108.994 95.2757 109 95.1197 109C94.8317 109 94.5977 108.964 94.4177 108.892C94.2497 108.808 94.1177 108.694 94.0217 108.55C93.9257 108.406 93.8597 108.238 93.8237 108.046C93.7997 107.842 93.7877 107.62 93.7877 107.38H93.7517C93.5477 107.68 93.3377 107.95 93.1217 108.19C92.9177 108.418 92.6837 108.61 92.4197 108.766C92.1677 108.922 91.8737 109.042 91.5377 109.126C91.2137 109.21 90.8237 109.252 90.3677 109.252C89.9357 109.252 89.5277 109.198 89.1437 109.09C88.7717 108.994 88.4417 108.838 88.1537 108.622C87.8777 108.394 87.6557 108.112 87.4877 107.776C87.3317 107.428 87.2537 107.02 87.2537 106.552C87.2537 105.904 87.3977 105.4 87.6857 105.04C87.9737 104.668 88.3517 104.386 88.8197 104.194C89.2997 104.002 89.8337 103.87 90.4217 103.798C91.0217 103.714 91.6277 103.636 92.2397 103.564C92.4797 103.54 92.6897 103.51 92.8697 103.474C93.0497 103.438 93.1997 103.378 93.3197 103.294C93.4397 103.198 93.5297 103.072 93.5897 102.916C93.6617 102.76 93.6977 102.556 93.6977 102.304C93.6977 101.92 93.6317 101.608 93.4997 101.368C93.3797 101.116 93.2057 100.918 92.9777 100.774C92.7617 100.63 92.5037 100.534 92.2037 100.486C91.9157 100.426 91.6037 100.396 91.2677 100.396C90.5477 100.396 89.9597 100.57 89.5037 100.918C89.0477 101.254 88.8077 101.8 88.7837 102.556H87.6497ZM93.6977 103.924H93.6617C93.5897 104.056 93.4517 104.152 93.2477 104.212C93.0437 104.272 92.8637 104.314 92.7077 104.338C92.2277 104.422 91.7297 104.5 91.2137 104.572C90.7097 104.632 90.2477 104.728 89.8277 104.86C89.4077 104.992 89.0597 105.184 88.7837 105.436C88.5197 105.676 88.3877 106.024 88.3877 106.48C88.3877 106.768 88.4417 107.026 88.5497 107.254C88.6697 107.47 88.8257 107.662 89.0177 107.83C89.2097 107.986 89.4317 108.106 89.6837 108.19C89.9357 108.274 90.1937 108.316 90.4577 108.316C90.8897 108.316 91.3037 108.25 91.6997 108.118C92.0957 107.986 92.4377 107.794 92.7257 107.542C93.0257 107.29 93.2597 106.984 93.4277 106.624C93.6077 106.264 93.6977 105.856 93.6977 105.4V103.924ZM97.0917 99.712H98.1357V101.89H98.1717C98.4597 101.134 98.9037 100.552 99.5037 100.144C100.116 99.736 100.842 99.55 101.682 99.586V100.72C101.166 100.696 100.698 100.768 100.278 100.936C99.8577 101.092 99.4917 101.32 99.1797 101.62C98.8797 101.92 98.6457 102.28 98.4777 102.7C98.3097 103.108 98.2257 103.558 98.2257 104.05V109H97.0917V99.712ZM104.569 99.712H106.459V100.666H104.569V106.93C104.569 107.302 104.617 107.596 104.713 107.812C104.821 108.016 105.079 108.13 105.487 108.154C105.811 108.154 106.135 108.136 106.459 108.1V109.054C106.291 109.054 106.123 109.06 105.955 109.072C105.787 109.084 105.619 109.09 105.451 109.09C104.695 109.09 104.167 108.946 103.867 108.658C103.567 108.358 103.423 107.812 103.435 107.02V100.666H101.815V99.712H103.435V96.922H104.569V99.712ZM108.096 99.712H109.14V101.278H109.194C109.494 100.702 109.884 100.252 110.364 99.928C110.856 99.604 111.48 99.442 112.236 99.442C112.848 99.442 113.4 99.592 113.892 99.892C114.396 100.192 114.732 100.648 114.9 101.26C115.176 100.648 115.584 100.192 116.124 99.892C116.664 99.592 117.24 99.442 117.852 99.442C119.904 99.442 120.93 100.528 120.93 102.7V109H119.796V102.754C119.796 101.986 119.634 101.404 119.31 101.008C118.986 100.6 118.416 100.396 117.6 100.396C117.108 100.396 116.7 100.492 116.376 100.684C116.052 100.864 115.794 101.11 115.602 101.422C115.41 101.734 115.272 102.094 115.188 102.502C115.116 102.898 115.08 103.312 115.08 103.744V109H113.946V102.7C113.946 102.388 113.91 102.094 113.838 101.818C113.778 101.53 113.67 101.284 113.514 101.08C113.37 100.864 113.172 100.696 112.92 100.576C112.668 100.456 112.362 100.396 112.002 100.396C111.522 100.396 111.102 100.486 110.742 100.666C110.394 100.834 110.106 101.074 109.878 101.386C109.662 101.686 109.5 102.046 109.392 102.466C109.284 102.874 109.23 103.324 109.23 103.816V109H108.096V99.712ZM129.768 103.708C129.756 103.276 129.678 102.862 129.534 102.466C129.402 102.07 129.21 101.722 128.958 101.422C128.706 101.11 128.4 100.864 128.04 100.684C127.68 100.492 127.272 100.396 126.816 100.396C126.348 100.396 125.934 100.492 125.574 100.684C125.214 100.864 124.908 101.11 124.656 101.422C124.404 101.722 124.2 102.076 124.044 102.484C123.9 102.88 123.804 103.288 123.756 103.708H129.768ZM123.756 104.662C123.756 105.07 123.81 105.496 123.918 105.94C124.038 106.372 124.224 106.762 124.476 107.11C124.728 107.458 125.046 107.746 125.43 107.974C125.814 108.202 126.276 108.316 126.816 108.316C127.644 108.316 128.292 108.1 128.76 107.668C129.228 107.236 129.552 106.66 129.732 105.94H130.866C130.626 106.996 130.182 107.812 129.534 108.388C128.898 108.964 127.992 109.252 126.816 109.252C126.084 109.252 125.448 109.126 124.908 108.874C124.38 108.61 123.948 108.256 123.612 107.812C123.276 107.356 123.024 106.834 122.856 106.246C122.7 105.646 122.622 105.016 122.622 104.356C122.622 103.744 122.7 103.144 122.856 102.556C123.024 101.968 123.276 101.446 123.612 100.99C123.948 100.522 124.38 100.15 124.908 99.874C125.448 99.586 126.084 99.442 126.816 99.442C127.56 99.442 128.196 99.592 128.724 99.892C129.252 100.192 129.678 100.588 130.002 101.08C130.338 101.56 130.578 102.118 130.722 102.754C130.866 103.378 130.926 104.014 130.902 104.662H123.756ZM132.406 99.712H133.54V101.314H133.576C133.792 100.75 134.176 100.3 134.728 99.964C135.28 99.616 135.886 99.442 136.546 99.442C137.194 99.442 137.734 99.526 138.166 99.694C138.61 99.862 138.964 100.102 139.228 100.414C139.492 100.714 139.678 101.086 139.786 101.53C139.894 101.974 139.948 102.472 139.948 103.024V109H138.814V103.204C138.814 102.808 138.778 102.442 138.706 102.106C138.634 101.758 138.508 101.458 138.328 101.206C138.148 100.954 137.902 100.756 137.59 100.612C137.29 100.468 136.912 100.396 136.456 100.396C136 100.396 135.592 100.48 135.232 100.648C134.884 100.804 134.584 101.026 134.332 101.314C134.092 101.59 133.9 101.926 133.756 102.322C133.624 102.706 133.552 103.126 133.54 103.582V109H132.406V99.712ZM143.892 99.712H145.782V100.666H143.892V106.93C143.892 107.302 143.94 107.596 144.036 107.812C144.144 108.016 144.402 108.13 144.81 108.154C145.134 108.154 145.458 108.136 145.782 108.1V109.054C145.614 109.054 145.446 109.06 145.278 109.072C145.11 109.084 144.942 109.09 144.774 109.09C144.018 109.09 143.49 108.946 143.19 108.658C142.89 108.358 142.746 107.812 142.758 107.02V100.666H141.138V99.712H142.758V96.922H143.892V99.712Z" fill="white"/>
</svg>
