<svg width="56" height="56" viewBox="0 0 56 56" fill="none" xmlns="http://www.w3.org/2000/svg">
<circle cx="28" cy="28" r="27.5" fill="black" fill-opacity="0.08" stroke="#5D6C5F"/>
<path d="M34.4404 19.3481C33.4834 18.2556 32.956 16.8526 32.9564 15.4001H28.6304V32.7601C28.597 33.6996 28.2004 34.5894 27.5241 35.2423C26.8477 35.8951 25.9444 36.26 25.0044 36.2601C23.0164 36.2601 21.3644 34.6361 21.3644 32.6201C21.3644 30.2121 23.6884 28.4061 26.0824 29.1481V24.7241C21.2524 24.0801 17.0244 27.8321 17.0244 32.6201C17.0244 37.2821 20.8884 40.6001 24.9904 40.6001C29.3864 40.6001 32.9564 37.0301 32.9564 32.6201V23.8141C34.7106 25.0739 36.8167 25.7499 38.9764 25.7461V21.4201C38.9764 21.4201 36.3444 21.5461 34.4404 19.3481Z" fill="#F3F3F3"/>
</svg>
