<svg width="56" height="56" viewBox="0 0 56 56" fill="none" xmlns="http://www.w3.org/2000/svg">
<circle cx="28" cy="28" r="27.5" fill="black" fill-opacity="0.08" stroke="#5D6C5F"/>
<path d="M42.0806 20.9232C41.9133 20.3016 41.5857 19.7349 41.1305 19.2798C40.6754 18.8246 40.1087 18.497 39.4871 18.3297C37.1981 17.7102 28.0001 17.7102 28.0001 17.7102C28.0001 17.7102 18.8021 17.7102 16.5131 18.3297C15.8915 18.497 15.3248 18.8246 14.8697 19.2798C14.4145 19.7349 14.0869 20.3016 13.9196 20.9232C13.4922 23.2576 13.2848 25.627 13.3001 28.0002C13.2848 30.3734 13.4922 32.7428 13.9196 35.0772C14.0869 35.6988 14.4145 36.2655 14.8697 36.7206C15.3248 37.1758 15.8915 37.5034 16.5131 37.6707C18.8021 38.2902 28.0001 38.2902 28.0001 38.2902C28.0001 38.2902 37.1981 38.2902 39.4871 37.6707C40.1087 37.5034 40.6754 37.1758 41.1305 36.7206C41.5857 36.2655 41.9133 35.6988 42.0806 35.0772C42.508 32.7428 42.7154 30.3734 42.7001 28.0002C42.7154 25.627 42.508 23.2576 42.0806 20.9232ZM25.0601 32.4102V23.5902L32.6936 28.0002L25.0601 32.4102Z" fill="#F3F3F3"/>
</svg>
